<?xml version="1.0" encoding="utf-8" standalone="no"?>
<!DOCTYPE svg PUBLIC "-//W3C//DTD SVG 1.1//EN"
  "http://www.w3.org/Graphics/SVG/1.1/DTD/svg11.dtd">
<svg height="345.6pt" version="1.1" viewBox="0 0 460.8 345.6" width="460.8pt" xmlns="http://www.w3.org/2000/svg" xmlns:xlink="http://www.w3.org/1999/xlink">
 <metadata>
  <rdf:RDF xmlns:cc="http://creativecommons.org/ns#" xmlns:dc="http://purl.org/dc/elements/1.1/" xmlns:rdf="http://www.w3.org/1999/02/22-rdf-syntax-ns#">
   <cc:Work>
    <dc:type rdf:resource="http://purl.org/dc/dcmitype/StillImage"/>
    <dc:date>2021-11-16T22:08:40.411674</dc:date>
    <dc:format>image/svg+xml</dc:format>
    <dc:creator>
     <cc:Agent>
      <dc:title>Matplotlib v3.4.3, https://matplotlib.org/</dc:title>
     </cc:Agent>
    </dc:creator>
   </cc:Work>
  </rdf:RDF>
 </metadata>
 <defs>
  <style type="text/css">*{stroke-linecap:butt;stroke-linejoin:round;}</style>
 </defs>
 <g id="figure_1">
  <g id="patch_1">
   <path d="M 0 345.6 
L 460.8 345.6 
L 460.8 0 
L 0 0 
z
" style="fill:#ffffff;"/>
  </g>
  <g id="axes_1">
   <g id="patch_2">
    <path d="M 60.32 301.624 
L 450 301.624 
L 450 10.8 
L 60.32 10.8 
z
" style="fill:#ffffff;"/>
   </g>
   <g id="matplotlib.axis_1">
    <g id="xtick_1">
     <g id="line2d_1">
      <path clip-path="url(#pef12bb483d)" d="M 78.032727 301.624 
L 78.032727 10.8 
" style="fill:none;stroke:#b0b0b0;stroke-linecap:square;stroke-width:0.8;"/>
     </g>
     <g id="line2d_2">
      <defs>
       <path d="M 0 0 
L 0 3.5 
" id="m4adf9cf783" style="stroke:#000000;stroke-width:0.8;"/>
      </defs>
      <g>
       <use style="stroke:#000000;stroke-width:0.8;" x="78.032727" xlink:href="#m4adf9cf783" y="301.624"/>
      </g>
     </g>
     <g id="text_1">
      <!-- 0.00 -->
      <g transform="translate(66.899915 316.222437)scale(0.1 -0.1)">
       <defs>
        <path d="M 2034 4250 
Q 1547 4250 1301 3770 
Q 1056 3291 1056 2328 
Q 1056 1369 1301 889 
Q 1547 409 2034 409 
Q 2525 409 2770 889 
Q 3016 1369 3016 2328 
Q 3016 3291 2770 3770 
Q 2525 4250 2034 4250 
z
M 2034 4750 
Q 2819 4750 3233 4129 
Q 3647 3509 3647 2328 
Q 3647 1150 3233 529 
Q 2819 -91 2034 -91 
Q 1250 -91 836 529 
Q 422 1150 422 2328 
Q 422 3509 836 4129 
Q 1250 4750 2034 4750 
z
" id="DejaVuSans-30" transform="scale(0.015625)"/>
        <path d="M 684 794 
L 1344 794 
L 1344 0 
L 684 0 
L 684 794 
z
" id="DejaVuSans-2e" transform="scale(0.015625)"/>
       </defs>
       <use xlink:href="#DejaVuSans-30"/>
       <use x="63.623047" xlink:href="#DejaVuSans-2e"/>
       <use x="95.410156" xlink:href="#DejaVuSans-30"/>
       <use x="159.033203" xlink:href="#DejaVuSans-30"/>
      </g>
     </g>
    </g>
    <g id="xtick_2">
     <g id="line2d_3">
      <path clip-path="url(#pef12bb483d)" d="M 122.314545 301.624 
L 122.314545 10.8 
" style="fill:none;stroke:#b0b0b0;stroke-linecap:square;stroke-width:0.8;"/>
     </g>
     <g id="line2d_4">
      <g>
       <use style="stroke:#000000;stroke-width:0.8;" x="122.314545" xlink:href="#m4adf9cf783" y="301.624"/>
      </g>
     </g>
     <g id="text_2">
      <!-- 0.25 -->
      <g transform="translate(111.181733 316.222437)scale(0.1 -0.1)">
       <defs>
        <path d="M 1228 531 
L 3431 531 
L 3431 0 
L 469 0 
L 469 531 
Q 828 903 1448 1529 
Q 2069 2156 2228 2338 
Q 2531 2678 2651 2914 
Q 2772 3150 2772 3378 
Q 2772 3750 2511 3984 
Q 2250 4219 1831 4219 
Q 1534 4219 1204 4116 
Q 875 4013 500 3803 
L 500 4441 
Q 881 4594 1212 4672 
Q 1544 4750 1819 4750 
Q 2544 4750 2975 4387 
Q 3406 4025 3406 3419 
Q 3406 3131 3298 2873 
Q 3191 2616 2906 2266 
Q 2828 2175 2409 1742 
Q 1991 1309 1228 531 
z
" id="DejaVuSans-32" transform="scale(0.015625)"/>
        <path d="M 691 4666 
L 3169 4666 
L 3169 4134 
L 1269 4134 
L 1269 2991 
Q 1406 3038 1543 3061 
Q 1681 3084 1819 3084 
Q 2600 3084 3056 2656 
Q 3513 2228 3513 1497 
Q 3513 744 3044 326 
Q 2575 -91 1722 -91 
Q 1428 -91 1123 -41 
Q 819 9 494 109 
L 494 744 
Q 775 591 1075 516 
Q 1375 441 1709 441 
Q 2250 441 2565 725 
Q 2881 1009 2881 1497 
Q 2881 1984 2565 2268 
Q 2250 2553 1709 2553 
Q 1456 2553 1204 2497 
Q 953 2441 691 2322 
L 691 4666 
z
" id="DejaVuSans-35" transform="scale(0.015625)"/>
       </defs>
       <use xlink:href="#DejaVuSans-30"/>
       <use x="63.623047" xlink:href="#DejaVuSans-2e"/>
       <use x="95.410156" xlink:href="#DejaVuSans-32"/>
       <use x="159.033203" xlink:href="#DejaVuSans-35"/>
      </g>
     </g>
    </g>
    <g id="xtick_3">
     <g id="line2d_5">
      <path clip-path="url(#pef12bb483d)" d="M 166.596364 301.624 
L 166.596364 10.8 
" style="fill:none;stroke:#b0b0b0;stroke-linecap:square;stroke-width:0.8;"/>
     </g>
     <g id="line2d_6">
      <g>
       <use style="stroke:#000000;stroke-width:0.8;" x="166.596364" xlink:href="#m4adf9cf783" y="301.624"/>
      </g>
     </g>
     <g id="text_3">
      <!-- 0.50 -->
      <g transform="translate(155.463551 316.222437)scale(0.1 -0.1)">
       <use xlink:href="#DejaVuSans-30"/>
       <use x="63.623047" xlink:href="#DejaVuSans-2e"/>
       <use x="95.410156" xlink:href="#DejaVuSans-35"/>
       <use x="159.033203" xlink:href="#DejaVuSans-30"/>
      </g>
     </g>
    </g>
    <g id="xtick_4">
     <g id="line2d_7">
      <path clip-path="url(#pef12bb483d)" d="M 210.878182 301.624 
L 210.878182 10.8 
" style="fill:none;stroke:#b0b0b0;stroke-linecap:square;stroke-width:0.8;"/>
     </g>
     <g id="line2d_8">
      <g>
       <use style="stroke:#000000;stroke-width:0.8;" x="210.878182" xlink:href="#m4adf9cf783" y="301.624"/>
      </g>
     </g>
     <g id="text_4">
      <!-- 0.75 -->
      <g transform="translate(199.745369 316.222437)scale(0.1 -0.1)">
       <defs>
        <path d="M 525 4666 
L 3525 4666 
L 3525 4397 
L 1831 0 
L 1172 0 
L 2766 4134 
L 525 4134 
L 525 4666 
z
" id="DejaVuSans-37" transform="scale(0.015625)"/>
       </defs>
       <use xlink:href="#DejaVuSans-30"/>
       <use x="63.623047" xlink:href="#DejaVuSans-2e"/>
       <use x="95.410156" xlink:href="#DejaVuSans-37"/>
       <use x="159.033203" xlink:href="#DejaVuSans-35"/>
      </g>
     </g>
    </g>
    <g id="xtick_5">
     <g id="line2d_9">
      <path clip-path="url(#pef12bb483d)" d="M 255.16 301.624 
L 255.16 10.8 
" style="fill:none;stroke:#b0b0b0;stroke-linecap:square;stroke-width:0.8;"/>
     </g>
     <g id="line2d_10">
      <g>
       <use style="stroke:#000000;stroke-width:0.8;" x="255.16" xlink:href="#m4adf9cf783" y="301.624"/>
      </g>
     </g>
     <g id="text_5">
      <!-- 1.00 -->
      <g transform="translate(244.027188 316.222437)scale(0.1 -0.1)">
       <defs>
        <path d="M 794 531 
L 1825 531 
L 1825 4091 
L 703 3866 
L 703 4441 
L 1819 4666 
L 2450 4666 
L 2450 531 
L 3481 531 
L 3481 0 
L 794 0 
L 794 531 
z
" id="DejaVuSans-31" transform="scale(0.015625)"/>
       </defs>
       <use xlink:href="#DejaVuSans-31"/>
       <use x="63.623047" xlink:href="#DejaVuSans-2e"/>
       <use x="95.410156" xlink:href="#DejaVuSans-30"/>
       <use x="159.033203" xlink:href="#DejaVuSans-30"/>
      </g>
     </g>
    </g>
    <g id="xtick_6">
     <g id="line2d_11">
      <path clip-path="url(#pef12bb483d)" d="M 299.441818 301.624 
L 299.441818 10.8 
" style="fill:none;stroke:#b0b0b0;stroke-linecap:square;stroke-width:0.8;"/>
     </g>
     <g id="line2d_12">
      <g>
       <use style="stroke:#000000;stroke-width:0.8;" x="299.441818" xlink:href="#m4adf9cf783" y="301.624"/>
      </g>
     </g>
     <g id="text_6">
      <!-- 1.25 -->
      <g transform="translate(288.309006 316.222437)scale(0.1 -0.1)">
       <use xlink:href="#DejaVuSans-31"/>
       <use x="63.623047" xlink:href="#DejaVuSans-2e"/>
       <use x="95.410156" xlink:href="#DejaVuSans-32"/>
       <use x="159.033203" xlink:href="#DejaVuSans-35"/>
      </g>
     </g>
    </g>
    <g id="xtick_7">
     <g id="line2d_13">
      <path clip-path="url(#pef12bb483d)" d="M 343.723636 301.624 
L 343.723636 10.8 
" style="fill:none;stroke:#b0b0b0;stroke-linecap:square;stroke-width:0.8;"/>
     </g>
     <g id="line2d_14">
      <g>
       <use style="stroke:#000000;stroke-width:0.8;" x="343.723636" xlink:href="#m4adf9cf783" y="301.624"/>
      </g>
     </g>
     <g id="text_7">
      <!-- 1.50 -->
      <g transform="translate(332.590824 316.222437)scale(0.1 -0.1)">
       <use xlink:href="#DejaVuSans-31"/>
       <use x="63.623047" xlink:href="#DejaVuSans-2e"/>
       <use x="95.410156" xlink:href="#DejaVuSans-35"/>
       <use x="159.033203" xlink:href="#DejaVuSans-30"/>
      </g>
     </g>
    </g>
    <g id="xtick_8">
     <g id="line2d_15">
      <path clip-path="url(#pef12bb483d)" d="M 388.005455 301.624 
L 388.005455 10.8 
" style="fill:none;stroke:#b0b0b0;stroke-linecap:square;stroke-width:0.8;"/>
     </g>
     <g id="line2d_16">
      <g>
       <use style="stroke:#000000;stroke-width:0.8;" x="388.005455" xlink:href="#m4adf9cf783" y="301.624"/>
      </g>
     </g>
     <g id="text_8">
      <!-- 1.75 -->
      <g transform="translate(376.872642 316.222437)scale(0.1 -0.1)">
       <use xlink:href="#DejaVuSans-31"/>
       <use x="63.623047" xlink:href="#DejaVuSans-2e"/>
       <use x="95.410156" xlink:href="#DejaVuSans-37"/>
       <use x="159.033203" xlink:href="#DejaVuSans-35"/>
      </g>
     </g>
    </g>
    <g id="xtick_9">
     <g id="line2d_17">
      <path clip-path="url(#pef12bb483d)" d="M 432.287273 301.624 
L 432.287273 10.8 
" style="fill:none;stroke:#b0b0b0;stroke-linecap:square;stroke-width:0.8;"/>
     </g>
     <g id="line2d_18">
      <g>
       <use style="stroke:#000000;stroke-width:0.8;" x="432.287273" xlink:href="#m4adf9cf783" y="301.624"/>
      </g>
     </g>
     <g id="text_9">
      <!-- 2.00 -->
      <g transform="translate(421.15446 316.222437)scale(0.1 -0.1)">
       <use xlink:href="#DejaVuSans-32"/>
       <use x="63.623047" xlink:href="#DejaVuSans-2e"/>
       <use x="95.410156" xlink:href="#DejaVuSans-30"/>
       <use x="159.033203" xlink:href="#DejaVuSans-30"/>
      </g>
     </g>
    </g>
    <g id="text_10">
     <!-- $V_{abs}\/[a.u.]$ -->
     <g transform="translate(229.31 329.900562)scale(0.1 -0.1)">
      <defs>
       <path d="M 1319 0 
L 500 4666 
L 1119 4666 
L 1797 653 
L 4063 4666 
L 4750 4666 
L 2053 0 
L 1319 0 
z
" id="DejaVuSans-Oblique-56" transform="scale(0.015625)"/>
       <path d="M 3438 1997 
L 3047 0 
L 2472 0 
L 2578 531 
Q 2325 219 2001 64 
Q 1678 -91 1281 -91 
Q 834 -91 548 182 
Q 263 456 263 884 
Q 263 1497 752 1853 
Q 1241 2209 2100 2209 
L 2900 2209 
L 2931 2363 
Q 2938 2388 2941 2417 
Q 2944 2447 2944 2509 
Q 2944 2788 2717 2942 
Q 2491 3097 2081 3097 
Q 1800 3097 1504 3025 
Q 1209 2953 897 2809 
L 997 3341 
Q 1322 3463 1633 3523 
Q 1944 3584 2234 3584 
Q 2853 3584 3176 3315 
Q 3500 3047 3500 2534 
Q 3500 2431 3484 2292 
Q 3469 2153 3438 1997 
z
M 2816 1759 
L 2241 1759 
Q 1534 1759 1195 1570 
Q 856 1381 856 984 
Q 856 709 1029 553 
Q 1203 397 1509 397 
Q 1978 397 2328 733 
Q 2678 1069 2791 1631 
L 2816 1759 
z
" id="DejaVuSans-Oblique-61" transform="scale(0.015625)"/>
       <path d="M 3169 2138 
Q 3169 2591 2961 2847 
Q 2753 3103 2388 3103 
Q 2122 3103 1889 2973 
Q 1656 2844 1484 2597 
Q 1303 2338 1198 1995 
Q 1094 1653 1094 1313 
Q 1094 881 1298 636 
Q 1503 391 1863 391 
Q 2134 391 2365 517 
Q 2597 644 2772 891 
Q 2950 1147 3059 1487 
Q 3169 1828 3169 2138 
z
M 1381 2969 
Q 1594 3256 1914 3420 
Q 2234 3584 2584 3584 
Q 3122 3584 3439 3221 
Q 3756 2859 3756 2241 
Q 3756 1734 3570 1259 
Q 3384 784 3041 416 
Q 2816 172 2522 40 
Q 2228 -91 1906 -91 
Q 1566 -91 1316 65 
Q 1066 222 909 531 
L 806 0 
L 231 0 
L 1178 4863 
L 1753 4863 
L 1381 2969 
z
" id="DejaVuSans-Oblique-62" transform="scale(0.015625)"/>
       <path d="M 3200 3397 
L 3091 2853 
Q 2863 2978 2609 3040 
Q 2356 3103 2088 3103 
Q 1634 3103 1373 2948 
Q 1113 2794 1113 2528 
Q 1113 2219 1719 2053 
Q 1766 2041 1788 2034 
L 1972 1978 
Q 2547 1819 2739 1644 
Q 2931 1469 2931 1166 
Q 2931 609 2489 259 
Q 2047 -91 1331 -91 
Q 1053 -91 747 -37 
Q 441 16 72 128 
L 184 722 
Q 500 559 806 475 
Q 1113 391 1394 391 
Q 1816 391 2080 572 
Q 2344 753 2344 1031 
Q 2344 1331 1650 1516 
L 1591 1531 
L 1394 1581 
Q 956 1697 753 1886 
Q 550 2075 550 2369 
Q 550 2928 970 3256 
Q 1391 3584 2113 3584 
Q 2397 3584 2667 3537 
Q 2938 3491 3200 3397 
z
" id="DejaVuSans-Oblique-73" transform="scale(0.015625)"/>
       <path d="M 550 4863 
L 1875 4863 
L 1875 4416 
L 1125 4416 
L 1125 -397 
L 1875 -397 
L 1875 -844 
L 550 -844 
L 550 4863 
z
" id="DejaVuSans-5b" transform="scale(0.015625)"/>
       <path d="M 428 1388 
L 838 3500 
L 1416 3500 
L 1006 1409 
Q 975 1256 961 1147 
Q 947 1038 947 966 
Q 947 700 1109 554 
Q 1272 409 1569 409 
Q 2031 409 2368 721 
Q 2706 1034 2809 1563 
L 3194 3500 
L 3769 3500 
L 3091 0 
L 2516 0 
L 2631 550 
Q 2388 244 2052 76 
Q 1716 -91 1338 -91 
Q 878 -91 622 161 
Q 366 413 366 863 
Q 366 956 381 1097 
Q 397 1238 428 1388 
z
" id="DejaVuSans-Oblique-75" transform="scale(0.015625)"/>
       <path d="M 1947 4863 
L 1947 -844 
L 622 -844 
L 622 -397 
L 1369 -397 
L 1369 4416 
L 622 4416 
L 622 4863 
L 1947 4863 
z
" id="DejaVuSans-5d" transform="scale(0.015625)"/>
      </defs>
      <use transform="translate(0 0.015625)" xlink:href="#DejaVuSans-Oblique-56"/>
      <use transform="translate(68.408203 -16.390625)scale(0.7)" xlink:href="#DejaVuSans-Oblique-61"/>
      <use transform="translate(111.303711 -16.390625)scale(0.7)" xlink:href="#DejaVuSans-Oblique-62"/>
      <use transform="translate(155.737305 -16.390625)scale(0.7)" xlink:href="#DejaVuSans-Oblique-73"/>
      <use transform="translate(211.177083 0.015625)" xlink:href="#DejaVuSans-5b"/>
      <use transform="translate(250.190754 0.015625)" xlink:href="#DejaVuSans-Oblique-61"/>
      <use transform="translate(311.470051 0.015625)" xlink:href="#DejaVuSans-2e"/>
      <use transform="translate(362.739583 0.015625)" xlink:href="#DejaVuSans-Oblique-75"/>
      <use transform="translate(426.118489 0.015625)" xlink:href="#DejaVuSans-2e"/>
      <use transform="translate(477.38802 0.015625)" xlink:href="#DejaVuSans-5d"/>
     </g>
    </g>
   </g>
   <g id="matplotlib.axis_2">
    <g id="ytick_1">
     <g id="line2d_19">
      <path clip-path="url(#pef12bb483d)" d="M 60.32 288.404727 
L 450 288.404727 
" style="fill:none;stroke:#b0b0b0;stroke-linecap:square;stroke-width:0.8;"/>
     </g>
     <g id="line2d_20">
      <defs>
       <path d="M 0 0 
L -3.5 0 
" id="m5d8e525910" style="stroke:#000000;stroke-width:0.8;"/>
      </defs>
      <g>
       <use style="stroke:#000000;stroke-width:0.8;" x="60.32" xlink:href="#m5d8e525910" y="288.404727"/>
      </g>
     </g>
     <g id="text_11">
      <!-- 0.000 -->
      <g transform="translate(24.691875 292.203946)scale(0.1 -0.1)">
       <use xlink:href="#DejaVuSans-30"/>
       <use x="63.623047" xlink:href="#DejaVuSans-2e"/>
       <use x="95.410156" xlink:href="#DejaVuSans-30"/>
       <use x="159.033203" xlink:href="#DejaVuSans-30"/>
       <use x="222.65625" xlink:href="#DejaVuSans-30"/>
      </g>
     </g>
    </g>
    <g id="ytick_2">
     <g id="line2d_21">
      <path clip-path="url(#pef12bb483d)" d="M 60.32 234.479361 
L 450 234.479361 
" style="fill:none;stroke:#b0b0b0;stroke-linecap:square;stroke-width:0.8;"/>
     </g>
     <g id="line2d_22">
      <g>
       <use style="stroke:#000000;stroke-width:0.8;" x="60.32" xlink:href="#m5d8e525910" y="234.479361"/>
      </g>
     </g>
     <g id="text_12">
      <!-- 0.005 -->
      <g transform="translate(24.691875 238.27858)scale(0.1 -0.1)">
       <use xlink:href="#DejaVuSans-30"/>
       <use x="63.623047" xlink:href="#DejaVuSans-2e"/>
       <use x="95.410156" xlink:href="#DejaVuSans-30"/>
       <use x="159.033203" xlink:href="#DejaVuSans-30"/>
       <use x="222.65625" xlink:href="#DejaVuSans-35"/>
      </g>
     </g>
    </g>
    <g id="ytick_3">
     <g id="line2d_23">
      <path clip-path="url(#pef12bb483d)" d="M 60.32 180.553995 
L 450 180.553995 
" style="fill:none;stroke:#b0b0b0;stroke-linecap:square;stroke-width:0.8;"/>
     </g>
     <g id="line2d_24">
      <g>
       <use style="stroke:#000000;stroke-width:0.8;" x="60.32" xlink:href="#m5d8e525910" y="180.553995"/>
      </g>
     </g>
     <g id="text_13">
      <!-- 0.010 -->
      <g transform="translate(24.691875 184.353214)scale(0.1 -0.1)">
       <use xlink:href="#DejaVuSans-30"/>
       <use x="63.623047" xlink:href="#DejaVuSans-2e"/>
       <use x="95.410156" xlink:href="#DejaVuSans-30"/>
       <use x="159.033203" xlink:href="#DejaVuSans-31"/>
       <use x="222.65625" xlink:href="#DejaVuSans-30"/>
      </g>
     </g>
    </g>
    <g id="ytick_4">
     <g id="line2d_25">
      <path clip-path="url(#pef12bb483d)" d="M 60.32 126.628629 
L 450 126.628629 
" style="fill:none;stroke:#b0b0b0;stroke-linecap:square;stroke-width:0.8;"/>
     </g>
     <g id="line2d_26">
      <g>
       <use style="stroke:#000000;stroke-width:0.8;" x="60.32" xlink:href="#m5d8e525910" y="126.628629"/>
      </g>
     </g>
     <g id="text_14">
      <!-- 0.015 -->
      <g transform="translate(24.691875 130.427847)scale(0.1 -0.1)">
       <use xlink:href="#DejaVuSans-30"/>
       <use x="63.623047" xlink:href="#DejaVuSans-2e"/>
       <use x="95.410156" xlink:href="#DejaVuSans-30"/>
       <use x="159.033203" xlink:href="#DejaVuSans-31"/>
       <use x="222.65625" xlink:href="#DejaVuSans-35"/>
      </g>
     </g>
    </g>
    <g id="ytick_5">
     <g id="line2d_27">
      <path clip-path="url(#pef12bb483d)" d="M 60.32 72.703262 
L 450 72.703262 
" style="fill:none;stroke:#b0b0b0;stroke-linecap:square;stroke-width:0.8;"/>
     </g>
     <g id="line2d_28">
      <g>
       <use style="stroke:#000000;stroke-width:0.8;" x="60.32" xlink:href="#m5d8e525910" y="72.703262"/>
      </g>
     </g>
     <g id="text_15">
      <!-- 0.020 -->
      <g transform="translate(24.691875 76.502481)scale(0.1 -0.1)">
       <use xlink:href="#DejaVuSans-30"/>
       <use x="63.623047" xlink:href="#DejaVuSans-2e"/>
       <use x="95.410156" xlink:href="#DejaVuSans-30"/>
       <use x="159.033203" xlink:href="#DejaVuSans-32"/>
       <use x="222.65625" xlink:href="#DejaVuSans-30"/>
      </g>
     </g>
    </g>
    <g id="ytick_6">
     <g id="line2d_29">
      <path clip-path="url(#pef12bb483d)" d="M 60.32 18.777896 
L 450 18.777896 
" style="fill:none;stroke:#b0b0b0;stroke-linecap:square;stroke-width:0.8;"/>
     </g>
     <g id="line2d_30">
      <g>
       <use style="stroke:#000000;stroke-width:0.8;" x="60.32" xlink:href="#m5d8e525910" y="18.777896"/>
      </g>
     </g>
     <g id="text_16">
      <!-- 0.025 -->
      <g transform="translate(24.691875 22.577115)scale(0.1 -0.1)">
       <use xlink:href="#DejaVuSans-30"/>
       <use x="63.623047" xlink:href="#DejaVuSans-2e"/>
       <use x="95.410156" xlink:href="#DejaVuSans-30"/>
       <use x="159.033203" xlink:href="#DejaVuSans-32"/>
       <use x="222.65625" xlink:href="#DejaVuSans-35"/>
      </g>
     </g>
    </g>
    <g id="text_17">
     <!-- Probability -->
     <g transform="translate(18.612188 182.640906)rotate(-90)scale(0.1 -0.1)">
      <defs>
       <path d="M 1259 4147 
L 1259 2394 
L 2053 2394 
Q 2494 2394 2734 2622 
Q 2975 2850 2975 3272 
Q 2975 3691 2734 3919 
Q 2494 4147 2053 4147 
L 1259 4147 
z
M 628 4666 
L 2053 4666 
Q 2838 4666 3239 4311 
Q 3641 3956 3641 3272 
Q 3641 2581 3239 2228 
Q 2838 1875 2053 1875 
L 1259 1875 
L 1259 0 
L 628 0 
L 628 4666 
z
" id="DejaVuSans-50" transform="scale(0.015625)"/>
       <path d="M 2631 2963 
Q 2534 3019 2420 3045 
Q 2306 3072 2169 3072 
Q 1681 3072 1420 2755 
Q 1159 2438 1159 1844 
L 1159 0 
L 581 0 
L 581 3500 
L 1159 3500 
L 1159 2956 
Q 1341 3275 1631 3429 
Q 1922 3584 2338 3584 
Q 2397 3584 2469 3576 
Q 2541 3569 2628 3553 
L 2631 2963 
z
" id="DejaVuSans-72" transform="scale(0.015625)"/>
       <path d="M 1959 3097 
Q 1497 3097 1228 2736 
Q 959 2375 959 1747 
Q 959 1119 1226 758 
Q 1494 397 1959 397 
Q 2419 397 2687 759 
Q 2956 1122 2956 1747 
Q 2956 2369 2687 2733 
Q 2419 3097 1959 3097 
z
M 1959 3584 
Q 2709 3584 3137 3096 
Q 3566 2609 3566 1747 
Q 3566 888 3137 398 
Q 2709 -91 1959 -91 
Q 1206 -91 779 398 
Q 353 888 353 1747 
Q 353 2609 779 3096 
Q 1206 3584 1959 3584 
z
" id="DejaVuSans-6f" transform="scale(0.015625)"/>
       <path d="M 3116 1747 
Q 3116 2381 2855 2742 
Q 2594 3103 2138 3103 
Q 1681 3103 1420 2742 
Q 1159 2381 1159 1747 
Q 1159 1113 1420 752 
Q 1681 391 2138 391 
Q 2594 391 2855 752 
Q 3116 1113 3116 1747 
z
M 1159 2969 
Q 1341 3281 1617 3432 
Q 1894 3584 2278 3584 
Q 2916 3584 3314 3078 
Q 3713 2572 3713 1747 
Q 3713 922 3314 415 
Q 2916 -91 2278 -91 
Q 1894 -91 1617 61 
Q 1341 213 1159 525 
L 1159 0 
L 581 0 
L 581 4863 
L 1159 4863 
L 1159 2969 
z
" id="DejaVuSans-62" transform="scale(0.015625)"/>
       <path d="M 2194 1759 
Q 1497 1759 1228 1600 
Q 959 1441 959 1056 
Q 959 750 1161 570 
Q 1363 391 1709 391 
Q 2188 391 2477 730 
Q 2766 1069 2766 1631 
L 2766 1759 
L 2194 1759 
z
M 3341 1997 
L 3341 0 
L 2766 0 
L 2766 531 
Q 2569 213 2275 61 
Q 1981 -91 1556 -91 
Q 1019 -91 701 211 
Q 384 513 384 1019 
Q 384 1609 779 1909 
Q 1175 2209 1959 2209 
L 2766 2209 
L 2766 2266 
Q 2766 2663 2505 2880 
Q 2244 3097 1772 3097 
Q 1472 3097 1187 3025 
Q 903 2953 641 2809 
L 641 3341 
Q 956 3463 1253 3523 
Q 1550 3584 1831 3584 
Q 2591 3584 2966 3190 
Q 3341 2797 3341 1997 
z
" id="DejaVuSans-61" transform="scale(0.015625)"/>
       <path d="M 603 3500 
L 1178 3500 
L 1178 0 
L 603 0 
L 603 3500 
z
M 603 4863 
L 1178 4863 
L 1178 4134 
L 603 4134 
L 603 4863 
z
" id="DejaVuSans-69" transform="scale(0.015625)"/>
       <path d="M 603 4863 
L 1178 4863 
L 1178 0 
L 603 0 
L 603 4863 
z
" id="DejaVuSans-6c" transform="scale(0.015625)"/>
       <path d="M 1172 4494 
L 1172 3500 
L 2356 3500 
L 2356 3053 
L 1172 3053 
L 1172 1153 
Q 1172 725 1289 603 
Q 1406 481 1766 481 
L 2356 481 
L 2356 0 
L 1766 0 
Q 1100 0 847 248 
Q 594 497 594 1153 
L 594 3053 
L 172 3053 
L 172 3500 
L 594 3500 
L 594 4494 
L 1172 4494 
z
" id="DejaVuSans-74" transform="scale(0.015625)"/>
       <path d="M 2059 -325 
Q 1816 -950 1584 -1140 
Q 1353 -1331 966 -1331 
L 506 -1331 
L 506 -850 
L 844 -850 
Q 1081 -850 1212 -737 
Q 1344 -625 1503 -206 
L 1606 56 
L 191 3500 
L 800 3500 
L 1894 763 
L 2988 3500 
L 3597 3500 
L 2059 -325 
z
" id="DejaVuSans-79" transform="scale(0.015625)"/>
      </defs>
      <use xlink:href="#DejaVuSans-50"/>
      <use x="58.552734" xlink:href="#DejaVuSans-72"/>
      <use x="97.416016" xlink:href="#DejaVuSans-6f"/>
      <use x="158.597656" xlink:href="#DejaVuSans-62"/>
      <use x="222.074219" xlink:href="#DejaVuSans-61"/>
      <use x="283.353516" xlink:href="#DejaVuSans-62"/>
      <use x="346.830078" xlink:href="#DejaVuSans-69"/>
      <use x="374.613281" xlink:href="#DejaVuSans-6c"/>
      <use x="402.396484" xlink:href="#DejaVuSans-69"/>
      <use x="430.179688" xlink:href="#DejaVuSans-74"/>
      <use x="469.388672" xlink:href="#DejaVuSans-79"/>
     </g>
    </g>
   </g>
   <g id="line2d_31">
    <path clip-path="url(#pef12bb483d)" d="M 78.032727 281.693312 
L 81.611056 268.917777 
L 85.189385 256.108173 
L 88.767713 242.991956 
L 92.346042 230.93185 
L 95.924371 217.628259 
L 99.5027 204.597213 
L 103.081028 193.473979 
L 106.659357 181.039125 
L 110.237686 170.222504 
L 113.816015 156.833743 
L 117.394343 149.951987 
L 120.972672 137.84078 
L 124.551001 126.121355 
L 128.12933 117.859842 
L 131.707658 106.70254 
L 135.285987 96.976099 
L 138.864316 84.558278 
L 142.442645 78.562294 
L 146.020973 74.252679 
L 149.599302 66.263711 
L 153.177631 61.051292 
L 156.75596 51.410021 
L 160.334288 48.803812 
L 163.912617 43.863938 
L 167.490946 43.284781 
L 171.069275 40.831878 
L 174.647603 32.21265 
L 178.225932 29.725679 
L 181.804261 26.693618 
L 185.38259 26.301835 
L 188.960918 24.240715 
L 192.539247 28.618466 
L 196.117576 25.807848 
L 199.695904 25.705643 
L 203.274233 30.219666 
L 206.852562 37.510239 
L 210.430891 40.525265 
L 214.009219 42.22867 
L 217.587548 45.465139 
L 221.165877 51.495192 
L 224.744206 57.678551 
L 228.322534 64.628442 
L 231.900863 69.636453 
L 235.479192 79.175519 
L 239.057521 86.840841 
L 242.635849 97.895938 
L 246.214178 104.539216 
L 249.792507 111.693516 
L 253.370836 121.454026 
L 256.949164 128.829768 
L 260.527493 140.140376 
L 264.105822 147.499085 
L 267.684151 163.425919 
L 271.262479 171.414888 
L 274.840808 182.214474 
L 278.419137 195.126282 
L 281.997466 201.462948 
L 285.575794 211.666342 
L 289.154123 222.414826 
L 292.732452 231.493974 
L 296.310781 240.113202 
L 299.889109 251.611184 
L 303.467438 257.743441 
L 307.045767 264.676299 
L 310.624096 270.229398 
L 314.202424 276.787507 
L 317.780753 281.454836 
L 321.359082 284.657237 
L 324.93741 287.36565 
L 328.515739 288.268455 
L 332.094068 288.404727 
L 335.672397 288.404727 
L 339.250725 288.404727 
L 342.829054 288.404727 
L 346.407383 288.404727 
L 349.985712 288.404727 
L 353.56404 288.404727 
L 357.142369 288.404727 
L 360.720698 288.404727 
L 364.299027 288.404727 
L 367.877355 288.404727 
L 371.455684 288.404727 
L 375.034013 288.404727 
L 378.612342 288.404727 
L 382.19067 288.404727 
L 385.768999 288.404727 
L 389.347328 288.404727 
L 392.925657 288.404727 
L 396.503985 288.404727 
L 400.082314 288.404727 
L 403.660643 288.404727 
L 407.238972 288.404727 
L 410.8173 288.404727 
L 414.395629 288.404727 
L 417.973958 288.404727 
L 421.552287 288.404727 
L 425.130615 288.404727 
L 428.708944 288.404727 
L 432.287273 288.404727 
" style="fill:none;stroke:#1f77b4;stroke-linecap:square;stroke-width:1.5;"/>
   </g>
   <g id="line2d_32">
    <path clip-path="url(#pef12bb483d)" d="M 78.032727 281.625176 
L 81.611056 269.411764 
L 85.189385 255.375709 
L 88.767713 244.150271 
L 92.346042 230.659306 
L 95.924371 217.25351 
L 99.5027 207.271558 
L 103.081028 192.775583 
L 106.659357 182.350746 
L 110.237686 170.239538 
L 113.816015 155.317712 
L 117.394343 148.401889 
L 120.972672 134.570242 
L 124.551001 127.892896 
L 128.12933 115.049224 
L 131.707658 106.072281 
L 135.285987 97.827801 
L 138.864316 86.142445 
L 142.442645 80.555277 
L 146.020973 73.571318 
L 149.599302 68.086354 
L 153.177631 58.905002 
L 156.75596 52.24469 
L 160.334288 49.46814 
L 163.912617 42.296806 
L 167.490946 38.82186 
L 171.069275 36.164549 
L 174.647603 35.466153 
L 178.225932 32.553331 
L 181.804261 26.352937 
L 185.38259 27.664559 
L 188.960918 24.990213 
L 192.539247 30.458143 
L 196.117576 26.966163 
L 199.695904 29.674577 
L 203.274233 25.790814 
L 206.852562 33.779782 
L 210.430891 36.743706 
L 214.009219 40.746708 
L 217.587548 48.088382 
L 221.165877 50.166536 
L 224.744206 58.13847 
L 228.322534 64.747681 
L 231.900863 70.641461 
L 235.479192 78.545259 
L 239.057521 87.283726 
L 242.635849 91.814783 
L 246.214178 103.04022 
L 249.792507 111.301733 
L 253.370836 121.454026 
L 256.949164 131.129365 
L 260.527493 142.491075 
L 264.105822 152.626333 
L 267.684151 160.768608 
L 271.262479 173.493041 
L 274.840808 182.19744 
L 278.419137 191.378792 
L 281.997466 204.341702 
L 285.575794 211.853717 
L 289.154123 223.14729 
L 292.732452 233.657298 
L 296.310781 241.935845 
L 299.889109 249.141247 
L 303.467438 257.709373 
L 307.045767 265.01698 
L 310.624096 272.069076 
L 314.202424 277.588107 
L 317.780753 281.829585 
L 321.359082 284.674271 
L 324.93741 287.382684 
L 328.515739 288.319557 
L 332.094068 288.404727 
L 335.672397 288.404727 
L 339.250725 288.404727 
L 342.829054 288.404727 
L 346.407383 288.404727 
L 349.985712 288.404727 
L 353.56404 288.404727 
L 357.142369 288.404727 
L 360.720698 288.404727 
L 364.299027 288.404727 
L 367.877355 288.404727 
L 371.455684 288.404727 
L 375.034013 288.404727 
L 378.612342 288.404727 
L 382.19067 288.404727 
L 385.768999 288.404727 
L 389.347328 288.404727 
L 392.925657 288.404727 
L 396.503985 288.404727 
L 400.082314 288.404727 
L 403.660643 288.404727 
L 407.238972 288.404727 
L 410.8173 288.404727 
L 414.395629 288.404727 
L 417.973958 288.404727 
L 421.552287 288.404727 
L 425.130615 288.404727 
L 428.708944 288.404727 
L 432.287273 288.404727 
" style="fill:none;stroke:#ff7f0e;stroke-linecap:square;stroke-width:1.5;"/>
   </g>
   <g id="line2d_33">
    <path clip-path="url(#pef12bb483d)" d="M 78.032727 281.488904 
L 81.611056 269.30956 
L 85.189385 255.358675 
L 88.767713 243.485943 
L 92.346042 230.04608 
L 95.924371 219.382766 
L 99.5027 205.942902 
L 103.081028 192.230494 
L 106.659357 181.56718 
L 110.237686 169.932925 
L 113.816015 156.578232 
L 117.394343 148.912911 
L 120.972672 134.791685 
L 124.551001 124.400916 
L 128.12933 116.480084 
L 131.707658 111.063257 
L 135.285987 95.221592 
L 138.864316 86.50016 
L 142.442645 81.304775 
L 146.020973 73.094364 
L 149.599302 66.195575 
L 153.177631 58.68356 
L 156.75596 53.096392 
L 160.334288 48.786778 
L 163.912617 43.812836 
L 167.490946 37.101421 
L 171.069275 32.757739 
L 174.647603 27.988206 
L 178.225932 28.72067 
L 181.804261 24.019273 
L 185.38259 31.020266 
L 188.960918 27.272776 
L 192.539247 28.499227 
L 196.117576 27.528287 
L 199.695904 31.173573 
L 203.274233 31.991207 
L 206.852562 33.439101 
L 210.430891 37.152524 
L 214.009219 41.887989 
L 217.587548 45.635479 
L 221.165877 49.2978 
L 224.744206 54.288776 
L 228.322534 67.967116 
L 231.900863 71.5613 
L 235.479192 78.443055 
L 239.057521 85.767696 
L 242.635849 99.394934 
L 246.214178 103.823786 
L 249.792507 115.696518 
L 253.370836 121.402923 
L 256.949164 131.895897 
L 260.527493 141.162419 
L 264.105822 152.881844 
L 267.684151 163.05117 
L 271.262479 173.084224 
L 274.840808 183.117278 
L 278.419137 192.809652 
L 281.997466 201.224471 
L 285.575794 212.807624 
L 289.154123 221.614226 
L 292.732452 231.715416 
L 296.310781 241.509994 
L 299.889109 249.379724 
L 303.467438 257.504965 
L 307.045767 264.897741 
L 310.624096 272.205348 
L 314.202424 276.923779 
L 317.780753 281.64221 
L 321.359082 285.066054 
L 324.93741 287.36565 
L 328.515739 288.302523 
L 332.094068 288.404727 
L 335.672397 288.404727 
L 339.250725 288.404727 
L 342.829054 288.404727 
L 346.407383 288.404727 
L 349.985712 288.404727 
L 353.56404 288.404727 
L 357.142369 288.404727 
L 360.720698 288.404727 
L 364.299027 288.404727 
L 367.877355 288.404727 
L 371.455684 288.404727 
L 375.034013 288.404727 
L 378.612342 288.404727 
L 382.19067 288.404727 
L 385.768999 288.404727 
L 389.347328 288.404727 
L 392.925657 288.404727 
L 396.503985 288.404727 
L 400.082314 288.404727 
L 403.660643 288.404727 
L 407.238972 288.404727 
L 410.8173 288.404727 
L 414.395629 288.404727 
L 417.973958 288.404727 
L 421.552287 288.404727 
L 425.130615 288.404727 
L 428.708944 288.404727 
L 432.287273 288.404727 
" style="fill:none;stroke:#2ca02c;stroke-linecap:square;stroke-width:1.5;"/>
   </g>
   <g id="line2d_34">
    <path clip-path="url(#pef12bb483d)" d="M 78.032727 282.204334 
L 81.611056 269.445832 
L 85.189385 256.227411 
L 88.767713 243.63925 
L 92.346042 229.773535 
L 95.924371 219.467936 
L 99.5027 207.101218 
L 103.081028 191.361757 
L 106.659357 180.119286 
L 110.237686 170.75056 
L 113.816015 160.870812 
L 117.394343 145.778646 
L 120.972672 135.473047 
L 124.551001 126.768649 
L 128.12933 115.441007 
L 131.707658 105.459055 
L 135.285987 98.185516 
L 138.864316 89.004165 
L 142.442645 80.078324 
L 146.020973 72.617411 
L 149.599302 64.355898 
L 153.177631 59.416024 
L 156.75596 55.225648 
L 160.334288 48.531267 
L 163.912617 43.386985 
L 167.490946 39.860937 
L 171.069275 38.804826 
L 174.647603 28.260751 
L 178.225932 31.446118 
L 181.804261 31.139505 
L 185.38259 29.708645 
L 188.960918 24.036307 
L 192.539247 27.221674 
L 196.117576 27.357946 
L 199.695904 28.17558 
L 203.274233 32.740705 
L 206.852562 32.706637 
L 210.430891 37.799817 
L 214.009219 41.956125 
L 217.587548 45.141492 
L 221.165877 51.324851 
L 224.744206 58.939071 
L 228.322534 60.352896 
L 231.900863 71.050278 
L 235.479192 77.489148 
L 239.057521 87.266692 
L 242.635849 96.141431 
L 246.214178 103.823786 
L 249.792507 109.240613 
L 253.370836 123.242601 
L 256.949164 132.815735 
L 260.527493 141.707508 
L 264.105822 149.321728 
L 267.684151 161.62031 
L 271.262479 173.016088 
L 274.840808 179.523094 
L 278.419137 193.780592 
L 281.997466 201.837697 
L 285.575794 214.47696 
L 289.154123 222.908814 
L 292.732452 231.613212 
L 296.310781 241.986947 
L 299.889109 249.004975 
L 303.467438 257.249454 
L 307.045767 264.097141 
L 310.624096 271.728395 
L 314.202424 276.804541 
L 317.780753 281.454836 
L 321.359082 285.100122 
L 324.93741 287.36565 
L 328.515739 288.336591 
L 332.094068 288.404727 
L 335.672397 288.404727 
L 339.250725 288.404727 
L 342.829054 288.404727 
L 346.407383 288.404727 
L 349.985712 288.404727 
L 353.56404 288.404727 
L 357.142369 288.404727 
L 360.720698 288.404727 
L 364.299027 288.404727 
L 367.877355 288.404727 
L 371.455684 288.404727 
L 375.034013 288.404727 
L 378.612342 288.404727 
L 382.19067 288.404727 
L 385.768999 288.404727 
L 389.347328 288.404727 
L 392.925657 288.404727 
L 396.503985 288.404727 
L 400.082314 288.404727 
L 403.660643 288.404727 
L 407.238972 288.404727 
L 410.8173 288.404727 
L 414.395629 288.404727 
L 417.973958 288.404727 
L 421.552287 288.404727 
L 425.130615 288.404727 
L 428.708944 288.404727 
L 432.287273 288.404727 
" style="fill:none;stroke:#d62728;stroke-linecap:square;stroke-width:1.5;"/>
   </g>
   <g id="patch_3">
    <path d="M 60.32 301.624 
L 60.32 10.8 
" style="fill:none;stroke:#000000;stroke-linecap:square;stroke-linejoin:miter;stroke-width:0.8;"/>
   </g>
   <g id="patch_4">
    <path d="M 450 301.624 
L 450 10.8 
" style="fill:none;stroke:#000000;stroke-linecap:square;stroke-linejoin:miter;stroke-width:0.8;"/>
   </g>
   <g id="patch_5">
    <path d="M 60.32 301.624 
L 450 301.624 
" style="fill:none;stroke:#000000;stroke-linecap:square;stroke-linejoin:miter;stroke-width:0.8;"/>
   </g>
   <g id="patch_6">
    <path d="M 60.32 10.8 
L 450 10.8 
" style="fill:none;stroke:#000000;stroke-linecap:square;stroke-linejoin:miter;stroke-width:0.8;"/>
   </g>
   <g id="legend_1">
    <g id="patch_7">
     <path d="M 363.74375 77.5125 
L 443 77.5125 
Q 445 77.5125 445 75.5125 
L 445 17.8 
Q 445 15.8 443 15.8 
L 363.74375 15.8 
Q 361.74375 15.8 361.74375 17.8 
L 361.74375 75.5125 
Q 361.74375 77.5125 363.74375 77.5125 
z
" style="fill:#ffffff;opacity:0.8;stroke:#cccccc;stroke-linejoin:miter;"/>
    </g>
    <g id="line2d_35">
     <path d="M 365.74375 23.898438 
L 385.74375 23.898438 
" style="fill:none;stroke:#1f77b4;stroke-linecap:square;stroke-width:1.5;"/>
    </g>
    <g id="line2d_36"/>
    <g id="text_18">
     <!-- particle 0 -->
     <g transform="translate(393.74375 27.398438)scale(0.1 -0.1)">
      <defs>
       <path d="M 1159 525 
L 1159 -1331 
L 581 -1331 
L 581 3500 
L 1159 3500 
L 1159 2969 
Q 1341 3281 1617 3432 
Q 1894 3584 2278 3584 
Q 2916 3584 3314 3078 
Q 3713 2572 3713 1747 
Q 3713 922 3314 415 
Q 2916 -91 2278 -91 
Q 1894 -91 1617 61 
Q 1341 213 1159 525 
z
M 3116 1747 
Q 3116 2381 2855 2742 
Q 2594 3103 2138 3103 
Q 1681 3103 1420 2742 
Q 1159 2381 1159 1747 
Q 1159 1113 1420 752 
Q 1681 391 2138 391 
Q 2594 391 2855 752 
Q 3116 1113 3116 1747 
z
" id="DejaVuSans-70" transform="scale(0.015625)"/>
       <path d="M 3122 3366 
L 3122 2828 
Q 2878 2963 2633 3030 
Q 2388 3097 2138 3097 
Q 1578 3097 1268 2742 
Q 959 2388 959 1747 
Q 959 1106 1268 751 
Q 1578 397 2138 397 
Q 2388 397 2633 464 
Q 2878 531 3122 666 
L 3122 134 
Q 2881 22 2623 -34 
Q 2366 -91 2075 -91 
Q 1284 -91 818 406 
Q 353 903 353 1747 
Q 353 2603 823 3093 
Q 1294 3584 2113 3584 
Q 2378 3584 2631 3529 
Q 2884 3475 3122 3366 
z
" id="DejaVuSans-63" transform="scale(0.015625)"/>
       <path d="M 3597 1894 
L 3597 1613 
L 953 1613 
Q 991 1019 1311 708 
Q 1631 397 2203 397 
Q 2534 397 2845 478 
Q 3156 559 3463 722 
L 3463 178 
Q 3153 47 2828 -22 
Q 2503 -91 2169 -91 
Q 1331 -91 842 396 
Q 353 884 353 1716 
Q 353 2575 817 3079 
Q 1281 3584 2069 3584 
Q 2775 3584 3186 3129 
Q 3597 2675 3597 1894 
z
M 3022 2063 
Q 3016 2534 2758 2815 
Q 2500 3097 2075 3097 
Q 1594 3097 1305 2825 
Q 1016 2553 972 2059 
L 3022 2063 
z
" id="DejaVuSans-65" transform="scale(0.015625)"/>
       <path id="DejaVuSans-20" transform="scale(0.015625)"/>
      </defs>
      <use xlink:href="#DejaVuSans-70"/>
      <use x="63.476562" xlink:href="#DejaVuSans-61"/>
      <use x="124.755859" xlink:href="#DejaVuSans-72"/>
      <use x="165.869141" xlink:href="#DejaVuSans-74"/>
      <use x="205.078125" xlink:href="#DejaVuSans-69"/>
      <use x="232.861328" xlink:href="#DejaVuSans-63"/>
      <use x="287.841797" xlink:href="#DejaVuSans-6c"/>
      <use x="315.625" xlink:href="#DejaVuSans-65"/>
      <use x="377.148438" xlink:href="#DejaVuSans-20"/>
      <use x="408.935547" xlink:href="#DejaVuSans-30"/>
     </g>
    </g>
    <g id="line2d_37">
     <path d="M 365.74375 38.576563 
L 385.74375 38.576563 
" style="fill:none;stroke:#ff7f0e;stroke-linecap:square;stroke-width:1.5;"/>
    </g>
    <g id="line2d_38"/>
    <g id="text_19">
     <!-- particle 1 -->
     <g transform="translate(393.74375 42.076563)scale(0.1 -0.1)">
      <use xlink:href="#DejaVuSans-70"/>
      <use x="63.476562" xlink:href="#DejaVuSans-61"/>
      <use x="124.755859" xlink:href="#DejaVuSans-72"/>
      <use x="165.869141" xlink:href="#DejaVuSans-74"/>
      <use x="205.078125" xlink:href="#DejaVuSans-69"/>
      <use x="232.861328" xlink:href="#DejaVuSans-63"/>
      <use x="287.841797" xlink:href="#DejaVuSans-6c"/>
      <use x="315.625" xlink:href="#DejaVuSans-65"/>
      <use x="377.148438" xlink:href="#DejaVuSans-20"/>
      <use x="408.935547" xlink:href="#DejaVuSans-31"/>
     </g>
    </g>
    <g id="line2d_39">
     <path d="M 365.74375 53.254687 
L 385.74375 53.254687 
" style="fill:none;stroke:#2ca02c;stroke-linecap:square;stroke-width:1.5;"/>
    </g>
    <g id="line2d_40"/>
    <g id="text_20">
     <!-- particle 2 -->
     <g transform="translate(393.74375 56.754687)scale(0.1 -0.1)">
      <use xlink:href="#DejaVuSans-70"/>
      <use x="63.476562" xlink:href="#DejaVuSans-61"/>
      <use x="124.755859" xlink:href="#DejaVuSans-72"/>
      <use x="165.869141" xlink:href="#DejaVuSans-74"/>
      <use x="205.078125" xlink:href="#DejaVuSans-69"/>
      <use x="232.861328" xlink:href="#DejaVuSans-63"/>
      <use x="287.841797" xlink:href="#DejaVuSans-6c"/>
      <use x="315.625" xlink:href="#DejaVuSans-65"/>
      <use x="377.148438" xlink:href="#DejaVuSans-20"/>
      <use x="408.935547" xlink:href="#DejaVuSans-32"/>
     </g>
    </g>
    <g id="line2d_41">
     <path d="M 365.74375 67.932813 
L 385.74375 67.932813 
" style="fill:none;stroke:#d62728;stroke-linecap:square;stroke-width:1.5;"/>
    </g>
    <g id="line2d_42"/>
    <g id="text_21">
     <!-- particle 3 -->
     <g transform="translate(393.74375 71.432813)scale(0.1 -0.1)">
      <defs>
       <path d="M 2597 2516 
Q 3050 2419 3304 2112 
Q 3559 1806 3559 1356 
Q 3559 666 3084 287 
Q 2609 -91 1734 -91 
Q 1441 -91 1130 -33 
Q 819 25 488 141 
L 488 750 
Q 750 597 1062 519 
Q 1375 441 1716 441 
Q 2309 441 2620 675 
Q 2931 909 2931 1356 
Q 2931 1769 2642 2001 
Q 2353 2234 1838 2234 
L 1294 2234 
L 1294 2753 
L 1863 2753 
Q 2328 2753 2575 2939 
Q 2822 3125 2822 3475 
Q 2822 3834 2567 4026 
Q 2313 4219 1838 4219 
Q 1578 4219 1281 4162 
Q 984 4106 628 3988 
L 628 4550 
Q 988 4650 1302 4700 
Q 1616 4750 1894 4750 
Q 2613 4750 3031 4423 
Q 3450 4097 3450 3541 
Q 3450 3153 3228 2886 
Q 3006 2619 2597 2516 
z
" id="DejaVuSans-33" transform="scale(0.015625)"/>
      </defs>
      <use xlink:href="#DejaVuSans-70"/>
      <use x="63.476562" xlink:href="#DejaVuSans-61"/>
      <use x="124.755859" xlink:href="#DejaVuSans-72"/>
      <use x="165.869141" xlink:href="#DejaVuSans-74"/>
      <use x="205.078125" xlink:href="#DejaVuSans-69"/>
      <use x="232.861328" xlink:href="#DejaVuSans-63"/>
      <use x="287.841797" xlink:href="#DejaVuSans-6c"/>
      <use x="315.625" xlink:href="#DejaVuSans-65"/>
      <use x="377.148438" xlink:href="#DejaVuSans-20"/>
      <use x="408.935547" xlink:href="#DejaVuSans-33"/>
     </g>
    </g>
   </g>
  </g>
 </g>
 <defs>
  <clipPath id="pef12bb483d">
   <rect height="290.824" width="389.68" x="60.32" y="10.8"/>
  </clipPath>
 </defs>
</svg>
