<?xml version="1.0" encoding="utf-8" standalone="no"?>
<!DOCTYPE svg PUBLIC "-//W3C//DTD SVG 1.1//EN"
  "http://www.w3.org/Graphics/SVG/1.1/DTD/svg11.dtd">
<svg height="345.6pt" version="1.1" viewBox="0 0 460.8 345.6" width="460.8pt" xmlns="http://www.w3.org/2000/svg" xmlns:xlink="http://www.w3.org/1999/xlink">
 <metadata>
  <rdf:RDF xmlns:cc="http://creativecommons.org/ns#" xmlns:dc="http://purl.org/dc/elements/1.1/" xmlns:rdf="http://www.w3.org/1999/02/22-rdf-syntax-ns#">
   <cc:Work>
    <dc:type rdf:resource="http://purl.org/dc/dcmitype/StillImage"/>
    <dc:date>2021-11-16T22:06:25.985929</dc:date>
    <dc:format>image/svg+xml</dc:format>
    <dc:creator>
     <cc:Agent>
      <dc:title>Matplotlib v3.4.3, https://matplotlib.org/</dc:title>
     </cc:Agent>
    </dc:creator>
   </cc:Work>
  </rdf:RDF>
 </metadata>
 <defs>
  <style type="text/css">*{stroke-linecap:butt;stroke-linejoin:round;}</style>
 </defs>
 <g id="figure_1">
  <g id="patch_1">
   <path d="M 0 345.6 
L 460.8 345.6 
L 460.8 0 
L 0 0 
z
" style="fill:#ffffff;"/>
  </g>
  <g id="axes_1">
   <g id="patch_2">
    <path d="M 60.32 299.824 
L 450 299.824 
L 450 10.8 
L 60.32 10.8 
z
" style="fill:#ffffff;"/>
   </g>
   <g id="matplotlib.axis_1">
    <g id="xtick_1">
     <g id="line2d_1">
      <path clip-path="url(#p11aba7e1f1)" d="M 78.032727 299.824 
L 78.032727 10.8 
" style="fill:none;stroke:#b0b0b0;stroke-linecap:square;stroke-width:0.8;"/>
     </g>
     <g id="line2d_2">
      <defs>
       <path d="M 0 0 
L 0 3.5 
" id="ma7672d4376" style="stroke:#000000;stroke-width:0.8;"/>
      </defs>
      <g>
       <use style="stroke:#000000;stroke-width:0.8;" x="78.032727" xlink:href="#ma7672d4376" y="299.824"/>
      </g>
     </g>
     <g id="text_1">
      <!-- −2.0 -->
      <g transform="translate(65.891321 314.422438)scale(0.1 -0.1)">
       <defs>
        <path d="M 678 2272 
L 4684 2272 
L 4684 1741 
L 678 1741 
L 678 2272 
z
" id="DejaVuSans-2212" transform="scale(0.015625)"/>
        <path d="M 1228 531 
L 3431 531 
L 3431 0 
L 469 0 
L 469 531 
Q 828 903 1448 1529 
Q 2069 2156 2228 2338 
Q 2531 2678 2651 2914 
Q 2772 3150 2772 3378 
Q 2772 3750 2511 3984 
Q 2250 4219 1831 4219 
Q 1534 4219 1204 4116 
Q 875 4013 500 3803 
L 500 4441 
Q 881 4594 1212 4672 
Q 1544 4750 1819 4750 
Q 2544 4750 2975 4387 
Q 3406 4025 3406 3419 
Q 3406 3131 3298 2873 
Q 3191 2616 2906 2266 
Q 2828 2175 2409 1742 
Q 1991 1309 1228 531 
z
" id="DejaVuSans-32" transform="scale(0.015625)"/>
        <path d="M 684 794 
L 1344 794 
L 1344 0 
L 684 0 
L 684 794 
z
" id="DejaVuSans-2e" transform="scale(0.015625)"/>
        <path d="M 2034 4250 
Q 1547 4250 1301 3770 
Q 1056 3291 1056 2328 
Q 1056 1369 1301 889 
Q 1547 409 2034 409 
Q 2525 409 2770 889 
Q 3016 1369 3016 2328 
Q 3016 3291 2770 3770 
Q 2525 4250 2034 4250 
z
M 2034 4750 
Q 2819 4750 3233 4129 
Q 3647 3509 3647 2328 
Q 3647 1150 3233 529 
Q 2819 -91 2034 -91 
Q 1250 -91 836 529 
Q 422 1150 422 2328 
Q 422 3509 836 4129 
Q 1250 4750 2034 4750 
z
" id="DejaVuSans-30" transform="scale(0.015625)"/>
       </defs>
       <use xlink:href="#DejaVuSans-2212"/>
       <use x="83.789062" xlink:href="#DejaVuSans-32"/>
       <use x="147.412109" xlink:href="#DejaVuSans-2e"/>
       <use x="179.199219" xlink:href="#DejaVuSans-30"/>
      </g>
     </g>
    </g>
    <g id="xtick_2">
     <g id="line2d_3">
      <path clip-path="url(#p11aba7e1f1)" d="M 122.314545 299.824 
L 122.314545 10.8 
" style="fill:none;stroke:#b0b0b0;stroke-linecap:square;stroke-width:0.8;"/>
     </g>
     <g id="line2d_4">
      <g>
       <use style="stroke:#000000;stroke-width:0.8;" x="122.314545" xlink:href="#ma7672d4376" y="299.824"/>
      </g>
     </g>
     <g id="text_2">
      <!-- −1.5 -->
      <g transform="translate(110.173139 314.422438)scale(0.1 -0.1)">
       <defs>
        <path d="M 794 531 
L 1825 531 
L 1825 4091 
L 703 3866 
L 703 4441 
L 1819 4666 
L 2450 4666 
L 2450 531 
L 3481 531 
L 3481 0 
L 794 0 
L 794 531 
z
" id="DejaVuSans-31" transform="scale(0.015625)"/>
        <path d="M 691 4666 
L 3169 4666 
L 3169 4134 
L 1269 4134 
L 1269 2991 
Q 1406 3038 1543 3061 
Q 1681 3084 1819 3084 
Q 2600 3084 3056 2656 
Q 3513 2228 3513 1497 
Q 3513 744 3044 326 
Q 2575 -91 1722 -91 
Q 1428 -91 1123 -41 
Q 819 9 494 109 
L 494 744 
Q 775 591 1075 516 
Q 1375 441 1709 441 
Q 2250 441 2565 725 
Q 2881 1009 2881 1497 
Q 2881 1984 2565 2268 
Q 2250 2553 1709 2553 
Q 1456 2553 1204 2497 
Q 953 2441 691 2322 
L 691 4666 
z
" id="DejaVuSans-35" transform="scale(0.015625)"/>
       </defs>
       <use xlink:href="#DejaVuSans-2212"/>
       <use x="83.789062" xlink:href="#DejaVuSans-31"/>
       <use x="147.412109" xlink:href="#DejaVuSans-2e"/>
       <use x="179.199219" xlink:href="#DejaVuSans-35"/>
      </g>
     </g>
    </g>
    <g id="xtick_3">
     <g id="line2d_5">
      <path clip-path="url(#p11aba7e1f1)" d="M 166.596364 299.824 
L 166.596364 10.8 
" style="fill:none;stroke:#b0b0b0;stroke-linecap:square;stroke-width:0.8;"/>
     </g>
     <g id="line2d_6">
      <g>
       <use style="stroke:#000000;stroke-width:0.8;" x="166.596364" xlink:href="#ma7672d4376" y="299.824"/>
      </g>
     </g>
     <g id="text_3">
      <!-- −1.0 -->
      <g transform="translate(154.454957 314.422438)scale(0.1 -0.1)">
       <use xlink:href="#DejaVuSans-2212"/>
       <use x="83.789062" xlink:href="#DejaVuSans-31"/>
       <use x="147.412109" xlink:href="#DejaVuSans-2e"/>
       <use x="179.199219" xlink:href="#DejaVuSans-30"/>
      </g>
     </g>
    </g>
    <g id="xtick_4">
     <g id="line2d_7">
      <path clip-path="url(#p11aba7e1f1)" d="M 210.878182 299.824 
L 210.878182 10.8 
" style="fill:none;stroke:#b0b0b0;stroke-linecap:square;stroke-width:0.8;"/>
     </g>
     <g id="line2d_8">
      <g>
       <use style="stroke:#000000;stroke-width:0.8;" x="210.878182" xlink:href="#ma7672d4376" y="299.824"/>
      </g>
     </g>
     <g id="text_4">
      <!-- −0.5 -->
      <g transform="translate(198.736776 314.422438)scale(0.1 -0.1)">
       <use xlink:href="#DejaVuSans-2212"/>
       <use x="83.789062" xlink:href="#DejaVuSans-30"/>
       <use x="147.412109" xlink:href="#DejaVuSans-2e"/>
       <use x="179.199219" xlink:href="#DejaVuSans-35"/>
      </g>
     </g>
    </g>
    <g id="xtick_5">
     <g id="line2d_9">
      <path clip-path="url(#p11aba7e1f1)" d="M 255.16 299.824 
L 255.16 10.8 
" style="fill:none;stroke:#b0b0b0;stroke-linecap:square;stroke-width:0.8;"/>
     </g>
     <g id="line2d_10">
      <g>
       <use style="stroke:#000000;stroke-width:0.8;" x="255.16" xlink:href="#ma7672d4376" y="299.824"/>
      </g>
     </g>
     <g id="text_5">
      <!-- 0.0 -->
      <g transform="translate(247.208438 314.422438)scale(0.1 -0.1)">
       <use xlink:href="#DejaVuSans-30"/>
       <use x="63.623047" xlink:href="#DejaVuSans-2e"/>
       <use x="95.410156" xlink:href="#DejaVuSans-30"/>
      </g>
     </g>
    </g>
    <g id="xtick_6">
     <g id="line2d_11">
      <path clip-path="url(#p11aba7e1f1)" d="M 299.441818 299.824 
L 299.441818 10.8 
" style="fill:none;stroke:#b0b0b0;stroke-linecap:square;stroke-width:0.8;"/>
     </g>
     <g id="line2d_12">
      <g>
       <use style="stroke:#000000;stroke-width:0.8;" x="299.441818" xlink:href="#ma7672d4376" y="299.824"/>
      </g>
     </g>
     <g id="text_6">
      <!-- 0.5 -->
      <g transform="translate(291.490256 314.422438)scale(0.1 -0.1)">
       <use xlink:href="#DejaVuSans-30"/>
       <use x="63.623047" xlink:href="#DejaVuSans-2e"/>
       <use x="95.410156" xlink:href="#DejaVuSans-35"/>
      </g>
     </g>
    </g>
    <g id="xtick_7">
     <g id="line2d_13">
      <path clip-path="url(#p11aba7e1f1)" d="M 343.723636 299.824 
L 343.723636 10.8 
" style="fill:none;stroke:#b0b0b0;stroke-linecap:square;stroke-width:0.8;"/>
     </g>
     <g id="line2d_14">
      <g>
       <use style="stroke:#000000;stroke-width:0.8;" x="343.723636" xlink:href="#ma7672d4376" y="299.824"/>
      </g>
     </g>
     <g id="text_7">
      <!-- 1.0 -->
      <g transform="translate(335.772074 314.422438)scale(0.1 -0.1)">
       <use xlink:href="#DejaVuSans-31"/>
       <use x="63.623047" xlink:href="#DejaVuSans-2e"/>
       <use x="95.410156" xlink:href="#DejaVuSans-30"/>
      </g>
     </g>
    </g>
    <g id="xtick_8">
     <g id="line2d_15">
      <path clip-path="url(#p11aba7e1f1)" d="M 388.005455 299.824 
L 388.005455 10.8 
" style="fill:none;stroke:#b0b0b0;stroke-linecap:square;stroke-width:0.8;"/>
     </g>
     <g id="line2d_16">
      <g>
       <use style="stroke:#000000;stroke-width:0.8;" x="388.005455" xlink:href="#ma7672d4376" y="299.824"/>
      </g>
     </g>
     <g id="text_8">
      <!-- 1.5 -->
      <g transform="translate(380.053892 314.422438)scale(0.1 -0.1)">
       <use xlink:href="#DejaVuSans-31"/>
       <use x="63.623047" xlink:href="#DejaVuSans-2e"/>
       <use x="95.410156" xlink:href="#DejaVuSans-35"/>
      </g>
     </g>
    </g>
    <g id="xtick_9">
     <g id="line2d_17">
      <path clip-path="url(#p11aba7e1f1)" d="M 432.287273 299.824 
L 432.287273 10.8 
" style="fill:none;stroke:#b0b0b0;stroke-linecap:square;stroke-width:0.8;"/>
     </g>
     <g id="line2d_18">
      <g>
       <use style="stroke:#000000;stroke-width:0.8;" x="432.287273" xlink:href="#ma7672d4376" y="299.824"/>
      </g>
     </g>
     <g id="text_9">
      <!-- 2.0 -->
      <g transform="translate(424.33571 314.422438)scale(0.1 -0.1)">
       <use xlink:href="#DejaVuSans-32"/>
       <use x="63.623047" xlink:href="#DejaVuSans-2e"/>
       <use x="95.410156" xlink:href="#DejaVuSans-30"/>
      </g>
     </g>
    </g>
    <g id="text_10">
     <!-- $V_y\/[a.u.]$ -->
     <g transform="translate(233.41 328.102125)scale(0.1 -0.1)">
      <defs>
       <path d="M 1319 0 
L 500 4666 
L 1119 4666 
L 1797 653 
L 4063 4666 
L 4750 4666 
L 2053 0 
L 1319 0 
z
" id="DejaVuSans-Oblique-56" transform="scale(0.015625)"/>
       <path d="M 1588 -325 
Q 1188 -997 936 -1164 
Q 684 -1331 294 -1331 
L -159 -1331 
L -63 -850 
L 269 -850 
Q 509 -850 678 -719 
Q 847 -588 1056 -206 
L 1234 128 
L 459 3500 
L 1069 3500 
L 1650 819 
L 3256 3500 
L 3859 3500 
L 1588 -325 
z
" id="DejaVuSans-Oblique-79" transform="scale(0.015625)"/>
       <path d="M 550 4863 
L 1875 4863 
L 1875 4416 
L 1125 4416 
L 1125 -397 
L 1875 -397 
L 1875 -844 
L 550 -844 
L 550 4863 
z
" id="DejaVuSans-5b" transform="scale(0.015625)"/>
       <path d="M 3438 1997 
L 3047 0 
L 2472 0 
L 2578 531 
Q 2325 219 2001 64 
Q 1678 -91 1281 -91 
Q 834 -91 548 182 
Q 263 456 263 884 
Q 263 1497 752 1853 
Q 1241 2209 2100 2209 
L 2900 2209 
L 2931 2363 
Q 2938 2388 2941 2417 
Q 2944 2447 2944 2509 
Q 2944 2788 2717 2942 
Q 2491 3097 2081 3097 
Q 1800 3097 1504 3025 
Q 1209 2953 897 2809 
L 997 3341 
Q 1322 3463 1633 3523 
Q 1944 3584 2234 3584 
Q 2853 3584 3176 3315 
Q 3500 3047 3500 2534 
Q 3500 2431 3484 2292 
Q 3469 2153 3438 1997 
z
M 2816 1759 
L 2241 1759 
Q 1534 1759 1195 1570 
Q 856 1381 856 984 
Q 856 709 1029 553 
Q 1203 397 1509 397 
Q 1978 397 2328 733 
Q 2678 1069 2791 1631 
L 2816 1759 
z
" id="DejaVuSans-Oblique-61" transform="scale(0.015625)"/>
       <path d="M 428 1388 
L 838 3500 
L 1416 3500 
L 1006 1409 
Q 975 1256 961 1147 
Q 947 1038 947 966 
Q 947 700 1109 554 
Q 1272 409 1569 409 
Q 2031 409 2368 721 
Q 2706 1034 2809 1563 
L 3194 3500 
L 3769 3500 
L 3091 0 
L 2516 0 
L 2631 550 
Q 2388 244 2052 76 
Q 1716 -91 1338 -91 
Q 878 -91 622 161 
Q 366 413 366 863 
Q 366 956 381 1097 
Q 397 1238 428 1388 
z
" id="DejaVuSans-Oblique-75" transform="scale(0.015625)"/>
       <path d="M 1947 4863 
L 1947 -844 
L 622 -844 
L 622 -397 
L 1369 -397 
L 1369 4416 
L 622 4416 
L 622 4863 
L 1947 4863 
z
" id="DejaVuSans-5d" transform="scale(0.015625)"/>
      </defs>
      <use transform="translate(0 0.015625)" xlink:href="#DejaVuSans-Oblique-56"/>
      <use transform="translate(68.408203 -16.390625)scale(0.7)" xlink:href="#DejaVuSans-Oblique-79"/>
      <use transform="translate(128.804036 0.015625)" xlink:href="#DejaVuSans-5b"/>
      <use transform="translate(167.817708 0.015625)" xlink:href="#DejaVuSans-Oblique-61"/>
      <use transform="translate(229.097004 0.015625)" xlink:href="#DejaVuSans-2e"/>
      <use transform="translate(280.366536 0.015625)" xlink:href="#DejaVuSans-Oblique-75"/>
      <use transform="translate(343.745442 0.015625)" xlink:href="#DejaVuSans-2e"/>
      <use transform="translate(395.014973 0.015625)" xlink:href="#DejaVuSans-5d"/>
     </g>
    </g>
   </g>
   <g id="matplotlib.axis_2">
    <g id="ytick_1">
     <g id="line2d_19">
      <path clip-path="url(#p11aba7e1f1)" d="M 60.32 286.686545 
L 450 286.686545 
" style="fill:none;stroke:#b0b0b0;stroke-linecap:square;stroke-width:0.8;"/>
     </g>
     <g id="line2d_20">
      <defs>
       <path d="M 0 0 
L -3.5 0 
" id="m3a9f79f836" style="stroke:#000000;stroke-width:0.8;"/>
      </defs>
      <g>
       <use style="stroke:#000000;stroke-width:0.8;" x="60.32" xlink:href="#m3a9f79f836" y="286.686545"/>
      </g>
     </g>
     <g id="text_11">
      <!-- 0.000 -->
      <g transform="translate(24.691875 290.485764)scale(0.1 -0.1)">
       <use xlink:href="#DejaVuSans-30"/>
       <use x="63.623047" xlink:href="#DejaVuSans-2e"/>
       <use x="95.410156" xlink:href="#DejaVuSans-30"/>
       <use x="159.033203" xlink:href="#DejaVuSans-30"/>
       <use x="222.65625" xlink:href="#DejaVuSans-30"/>
      </g>
     </g>
    </g>
    <g id="ytick_2">
     <g id="line2d_21">
      <path clip-path="url(#p11aba7e1f1)" d="M 60.32 250.685883 
L 450 250.685883 
" style="fill:none;stroke:#b0b0b0;stroke-linecap:square;stroke-width:0.8;"/>
     </g>
     <g id="line2d_22">
      <g>
       <use style="stroke:#000000;stroke-width:0.8;" x="60.32" xlink:href="#m3a9f79f836" y="250.685883"/>
      </g>
     </g>
     <g id="text_12">
      <!-- 0.002 -->
      <g transform="translate(24.691875 254.485102)scale(0.1 -0.1)">
       <use xlink:href="#DejaVuSans-30"/>
       <use x="63.623047" xlink:href="#DejaVuSans-2e"/>
       <use x="95.410156" xlink:href="#DejaVuSans-30"/>
       <use x="159.033203" xlink:href="#DejaVuSans-30"/>
       <use x="222.65625" xlink:href="#DejaVuSans-32"/>
      </g>
     </g>
    </g>
    <g id="ytick_3">
     <g id="line2d_23">
      <path clip-path="url(#p11aba7e1f1)" d="M 60.32 214.68522 
L 450 214.68522 
" style="fill:none;stroke:#b0b0b0;stroke-linecap:square;stroke-width:0.8;"/>
     </g>
     <g id="line2d_24">
      <g>
       <use style="stroke:#000000;stroke-width:0.8;" x="60.32" xlink:href="#m3a9f79f836" y="214.68522"/>
      </g>
     </g>
     <g id="text_13">
      <!-- 0.004 -->
      <g transform="translate(24.691875 218.484439)scale(0.1 -0.1)">
       <defs>
        <path d="M 2419 4116 
L 825 1625 
L 2419 1625 
L 2419 4116 
z
M 2253 4666 
L 3047 4666 
L 3047 1625 
L 3713 1625 
L 3713 1100 
L 3047 1100 
L 3047 0 
L 2419 0 
L 2419 1100 
L 313 1100 
L 313 1709 
L 2253 4666 
z
" id="DejaVuSans-34" transform="scale(0.015625)"/>
       </defs>
       <use xlink:href="#DejaVuSans-30"/>
       <use x="63.623047" xlink:href="#DejaVuSans-2e"/>
       <use x="95.410156" xlink:href="#DejaVuSans-30"/>
       <use x="159.033203" xlink:href="#DejaVuSans-30"/>
       <use x="222.65625" xlink:href="#DejaVuSans-34"/>
      </g>
     </g>
    </g>
    <g id="ytick_4">
     <g id="line2d_25">
      <path clip-path="url(#p11aba7e1f1)" d="M 60.32 178.684558 
L 450 178.684558 
" style="fill:none;stroke:#b0b0b0;stroke-linecap:square;stroke-width:0.8;"/>
     </g>
     <g id="line2d_26">
      <g>
       <use style="stroke:#000000;stroke-width:0.8;" x="60.32" xlink:href="#m3a9f79f836" y="178.684558"/>
      </g>
     </g>
     <g id="text_14">
      <!-- 0.006 -->
      <g transform="translate(24.691875 182.483777)scale(0.1 -0.1)">
       <defs>
        <path d="M 2113 2584 
Q 1688 2584 1439 2293 
Q 1191 2003 1191 1497 
Q 1191 994 1439 701 
Q 1688 409 2113 409 
Q 2538 409 2786 701 
Q 3034 994 3034 1497 
Q 3034 2003 2786 2293 
Q 2538 2584 2113 2584 
z
M 3366 4563 
L 3366 3988 
Q 3128 4100 2886 4159 
Q 2644 4219 2406 4219 
Q 1781 4219 1451 3797 
Q 1122 3375 1075 2522 
Q 1259 2794 1537 2939 
Q 1816 3084 2150 3084 
Q 2853 3084 3261 2657 
Q 3669 2231 3669 1497 
Q 3669 778 3244 343 
Q 2819 -91 2113 -91 
Q 1303 -91 875 529 
Q 447 1150 447 2328 
Q 447 3434 972 4092 
Q 1497 4750 2381 4750 
Q 2619 4750 2861 4703 
Q 3103 4656 3366 4563 
z
" id="DejaVuSans-36" transform="scale(0.015625)"/>
       </defs>
       <use xlink:href="#DejaVuSans-30"/>
       <use x="63.623047" xlink:href="#DejaVuSans-2e"/>
       <use x="95.410156" xlink:href="#DejaVuSans-30"/>
       <use x="159.033203" xlink:href="#DejaVuSans-30"/>
       <use x="222.65625" xlink:href="#DejaVuSans-36"/>
      </g>
     </g>
    </g>
    <g id="ytick_5">
     <g id="line2d_27">
      <path clip-path="url(#p11aba7e1f1)" d="M 60.32 142.683895 
L 450 142.683895 
" style="fill:none;stroke:#b0b0b0;stroke-linecap:square;stroke-width:0.8;"/>
     </g>
     <g id="line2d_28">
      <g>
       <use style="stroke:#000000;stroke-width:0.8;" x="60.32" xlink:href="#m3a9f79f836" y="142.683895"/>
      </g>
     </g>
     <g id="text_15">
      <!-- 0.008 -->
      <g transform="translate(24.691875 146.483114)scale(0.1 -0.1)">
       <defs>
        <path d="M 2034 2216 
Q 1584 2216 1326 1975 
Q 1069 1734 1069 1313 
Q 1069 891 1326 650 
Q 1584 409 2034 409 
Q 2484 409 2743 651 
Q 3003 894 3003 1313 
Q 3003 1734 2745 1975 
Q 2488 2216 2034 2216 
z
M 1403 2484 
Q 997 2584 770 2862 
Q 544 3141 544 3541 
Q 544 4100 942 4425 
Q 1341 4750 2034 4750 
Q 2731 4750 3128 4425 
Q 3525 4100 3525 3541 
Q 3525 3141 3298 2862 
Q 3072 2584 2669 2484 
Q 3125 2378 3379 2068 
Q 3634 1759 3634 1313 
Q 3634 634 3220 271 
Q 2806 -91 2034 -91 
Q 1263 -91 848 271 
Q 434 634 434 1313 
Q 434 1759 690 2068 
Q 947 2378 1403 2484 
z
M 1172 3481 
Q 1172 3119 1398 2916 
Q 1625 2713 2034 2713 
Q 2441 2713 2670 2916 
Q 2900 3119 2900 3481 
Q 2900 3844 2670 4047 
Q 2441 4250 2034 4250 
Q 1625 4250 1398 4047 
Q 1172 3844 1172 3481 
z
" id="DejaVuSans-38" transform="scale(0.015625)"/>
       </defs>
       <use xlink:href="#DejaVuSans-30"/>
       <use x="63.623047" xlink:href="#DejaVuSans-2e"/>
       <use x="95.410156" xlink:href="#DejaVuSans-30"/>
       <use x="159.033203" xlink:href="#DejaVuSans-30"/>
       <use x="222.65625" xlink:href="#DejaVuSans-38"/>
      </g>
     </g>
    </g>
    <g id="ytick_6">
     <g id="line2d_29">
      <path clip-path="url(#p11aba7e1f1)" d="M 60.32 106.683233 
L 450 106.683233 
" style="fill:none;stroke:#b0b0b0;stroke-linecap:square;stroke-width:0.8;"/>
     </g>
     <g id="line2d_30">
      <g>
       <use style="stroke:#000000;stroke-width:0.8;" x="60.32" xlink:href="#m3a9f79f836" y="106.683233"/>
      </g>
     </g>
     <g id="text_16">
      <!-- 0.010 -->
      <g transform="translate(24.691875 110.482452)scale(0.1 -0.1)">
       <use xlink:href="#DejaVuSans-30"/>
       <use x="63.623047" xlink:href="#DejaVuSans-2e"/>
       <use x="95.410156" xlink:href="#DejaVuSans-30"/>
       <use x="159.033203" xlink:href="#DejaVuSans-31"/>
       <use x="222.65625" xlink:href="#DejaVuSans-30"/>
      </g>
     </g>
    </g>
    <g id="ytick_7">
     <g id="line2d_31">
      <path clip-path="url(#p11aba7e1f1)" d="M 60.32 70.68257 
L 450 70.68257 
" style="fill:none;stroke:#b0b0b0;stroke-linecap:square;stroke-width:0.8;"/>
     </g>
     <g id="line2d_32">
      <g>
       <use style="stroke:#000000;stroke-width:0.8;" x="60.32" xlink:href="#m3a9f79f836" y="70.68257"/>
      </g>
     </g>
     <g id="text_17">
      <!-- 0.012 -->
      <g transform="translate(24.691875 74.481789)scale(0.1 -0.1)">
       <use xlink:href="#DejaVuSans-30"/>
       <use x="63.623047" xlink:href="#DejaVuSans-2e"/>
       <use x="95.410156" xlink:href="#DejaVuSans-30"/>
       <use x="159.033203" xlink:href="#DejaVuSans-31"/>
       <use x="222.65625" xlink:href="#DejaVuSans-32"/>
      </g>
     </g>
    </g>
    <g id="ytick_8">
     <g id="line2d_33">
      <path clip-path="url(#p11aba7e1f1)" d="M 60.32 34.681908 
L 450 34.681908 
" style="fill:none;stroke:#b0b0b0;stroke-linecap:square;stroke-width:0.8;"/>
     </g>
     <g id="line2d_34">
      <g>
       <use style="stroke:#000000;stroke-width:0.8;" x="60.32" xlink:href="#m3a9f79f836" y="34.681908"/>
      </g>
     </g>
     <g id="text_18">
      <!-- 0.014 -->
      <g transform="translate(24.691875 38.481127)scale(0.1 -0.1)">
       <use xlink:href="#DejaVuSans-30"/>
       <use x="63.623047" xlink:href="#DejaVuSans-2e"/>
       <use x="95.410156" xlink:href="#DejaVuSans-30"/>
       <use x="159.033203" xlink:href="#DejaVuSans-31"/>
       <use x="222.65625" xlink:href="#DejaVuSans-34"/>
      </g>
     </g>
    </g>
    <g id="text_19">
     <!-- Probability -->
     <g transform="translate(18.612188 181.740906)rotate(-90)scale(0.1 -0.1)">
      <defs>
       <path d="M 1259 4147 
L 1259 2394 
L 2053 2394 
Q 2494 2394 2734 2622 
Q 2975 2850 2975 3272 
Q 2975 3691 2734 3919 
Q 2494 4147 2053 4147 
L 1259 4147 
z
M 628 4666 
L 2053 4666 
Q 2838 4666 3239 4311 
Q 3641 3956 3641 3272 
Q 3641 2581 3239 2228 
Q 2838 1875 2053 1875 
L 1259 1875 
L 1259 0 
L 628 0 
L 628 4666 
z
" id="DejaVuSans-50" transform="scale(0.015625)"/>
       <path d="M 2631 2963 
Q 2534 3019 2420 3045 
Q 2306 3072 2169 3072 
Q 1681 3072 1420 2755 
Q 1159 2438 1159 1844 
L 1159 0 
L 581 0 
L 581 3500 
L 1159 3500 
L 1159 2956 
Q 1341 3275 1631 3429 
Q 1922 3584 2338 3584 
Q 2397 3584 2469 3576 
Q 2541 3569 2628 3553 
L 2631 2963 
z
" id="DejaVuSans-72" transform="scale(0.015625)"/>
       <path d="M 1959 3097 
Q 1497 3097 1228 2736 
Q 959 2375 959 1747 
Q 959 1119 1226 758 
Q 1494 397 1959 397 
Q 2419 397 2687 759 
Q 2956 1122 2956 1747 
Q 2956 2369 2687 2733 
Q 2419 3097 1959 3097 
z
M 1959 3584 
Q 2709 3584 3137 3096 
Q 3566 2609 3566 1747 
Q 3566 888 3137 398 
Q 2709 -91 1959 -91 
Q 1206 -91 779 398 
Q 353 888 353 1747 
Q 353 2609 779 3096 
Q 1206 3584 1959 3584 
z
" id="DejaVuSans-6f" transform="scale(0.015625)"/>
       <path d="M 3116 1747 
Q 3116 2381 2855 2742 
Q 2594 3103 2138 3103 
Q 1681 3103 1420 2742 
Q 1159 2381 1159 1747 
Q 1159 1113 1420 752 
Q 1681 391 2138 391 
Q 2594 391 2855 752 
Q 3116 1113 3116 1747 
z
M 1159 2969 
Q 1341 3281 1617 3432 
Q 1894 3584 2278 3584 
Q 2916 3584 3314 3078 
Q 3713 2572 3713 1747 
Q 3713 922 3314 415 
Q 2916 -91 2278 -91 
Q 1894 -91 1617 61 
Q 1341 213 1159 525 
L 1159 0 
L 581 0 
L 581 4863 
L 1159 4863 
L 1159 2969 
z
" id="DejaVuSans-62" transform="scale(0.015625)"/>
       <path d="M 2194 1759 
Q 1497 1759 1228 1600 
Q 959 1441 959 1056 
Q 959 750 1161 570 
Q 1363 391 1709 391 
Q 2188 391 2477 730 
Q 2766 1069 2766 1631 
L 2766 1759 
L 2194 1759 
z
M 3341 1997 
L 3341 0 
L 2766 0 
L 2766 531 
Q 2569 213 2275 61 
Q 1981 -91 1556 -91 
Q 1019 -91 701 211 
Q 384 513 384 1019 
Q 384 1609 779 1909 
Q 1175 2209 1959 2209 
L 2766 2209 
L 2766 2266 
Q 2766 2663 2505 2880 
Q 2244 3097 1772 3097 
Q 1472 3097 1187 3025 
Q 903 2953 641 2809 
L 641 3341 
Q 956 3463 1253 3523 
Q 1550 3584 1831 3584 
Q 2591 3584 2966 3190 
Q 3341 2797 3341 1997 
z
" id="DejaVuSans-61" transform="scale(0.015625)"/>
       <path d="M 603 3500 
L 1178 3500 
L 1178 0 
L 603 0 
L 603 3500 
z
M 603 4863 
L 1178 4863 
L 1178 4134 
L 603 4134 
L 603 4863 
z
" id="DejaVuSans-69" transform="scale(0.015625)"/>
       <path d="M 603 4863 
L 1178 4863 
L 1178 0 
L 603 0 
L 603 4863 
z
" id="DejaVuSans-6c" transform="scale(0.015625)"/>
       <path d="M 1172 4494 
L 1172 3500 
L 2356 3500 
L 2356 3053 
L 1172 3053 
L 1172 1153 
Q 1172 725 1289 603 
Q 1406 481 1766 481 
L 2356 481 
L 2356 0 
L 1766 0 
Q 1100 0 847 248 
Q 594 497 594 1153 
L 594 3053 
L 172 3053 
L 172 3500 
L 594 3500 
L 594 4494 
L 1172 4494 
z
" id="DejaVuSans-74" transform="scale(0.015625)"/>
       <path d="M 2059 -325 
Q 1816 -950 1584 -1140 
Q 1353 -1331 966 -1331 
L 506 -1331 
L 506 -850 
L 844 -850 
Q 1081 -850 1212 -737 
Q 1344 -625 1503 -206 
L 1606 56 
L 191 3500 
L 800 3500 
L 1894 763 
L 2988 3500 
L 3597 3500 
L 2059 -325 
z
" id="DejaVuSans-79" transform="scale(0.015625)"/>
      </defs>
      <use xlink:href="#DejaVuSans-50"/>
      <use x="58.552734" xlink:href="#DejaVuSans-72"/>
      <use x="97.416016" xlink:href="#DejaVuSans-6f"/>
      <use x="158.597656" xlink:href="#DejaVuSans-62"/>
      <use x="222.074219" xlink:href="#DejaVuSans-61"/>
      <use x="283.353516" xlink:href="#DejaVuSans-62"/>
      <use x="346.830078" xlink:href="#DejaVuSans-69"/>
      <use x="374.613281" xlink:href="#DejaVuSans-6c"/>
      <use x="402.396484" xlink:href="#DejaVuSans-69"/>
      <use x="430.179688" xlink:href="#DejaVuSans-74"/>
      <use x="469.388672" xlink:href="#DejaVuSans-79"/>
     </g>
    </g>
   </g>
   <g id="line2d_35">
    <path clip-path="url(#p11aba7e1f1)" d="M 78.032727 286.686545 
L 129.657762 286.686545 
L 133.218109 286.487536 
L 134.998282 285.975798 
L 138.55863 284.497444 
L 142.118977 282.507351 
L 143.89915 281.171146 
L 145.679324 279.408492 
L 147.459497 277.134101 
L 149.239671 274.51855 
L 151.019845 272.357878 
L 152.800018 269.28745 
L 156.360365 264.710237 
L 158.140539 258.654669 
L 159.920713 256.351847 
L 161.700886 252.314802 
L 163.48106 247.53858 
L 165.261233 241.141853 
L 167.041407 238.412584 
L 168.821581 232.811894 
L 170.601754 228.291541 
L 172.381928 220.41646 
L 174.162101 219.876292 
L 177.722449 205.604485 
L 179.502622 204.04084 
L 181.282796 195.90989 
L 183.062969 191.787555 
L 184.843143 183.230157 
L 186.623317 179.278402 
L 188.40349 173.592423 
L 190.183664 166.14379 
L 191.963837 163.613529 
L 193.744011 157.415812 
L 195.524185 147.977087 
L 197.304358 143.371444 
L 199.084532 137.429596 
L 200.864705 129.071207 
L 202.644879 127.024254 
L 204.425053 120.769677 
L 206.205226 116.505193 
L 207.9854 110.392766 
L 209.765573 107.009608 
L 211.545747 101.693218 
L 213.325921 93.05053 
L 215.106094 88.814475 
L 216.886268 85.260738 
L 218.666441 78.920872 
L 220.446615 74.542668 
L 222.226788 66.411718 
L 224.006962 65.445101 
L 225.787136 60.924748 
L 227.567309 59.304244 
L 229.347483 56.063236 
L 231.127656 54.357442 
L 232.90783 47.733277 
L 234.688004 37.697524 
L 236.468177 39.488607 
L 238.248351 39.971915 
L 240.028524 33.035021 
L 241.808698 38.180832 
L 243.588872 30.732199 
L 245.369045 32.722292 
L 247.149219 31.784106 
L 248.929392 30.67534 
L 250.709566 29.993022 
L 252.48974 31.215508 
L 254.269913 29.936162 
L 256.050087 28.145079 
L 257.83026 25.785398 
L 259.610434 25.27366 
L 261.390608 29.424424 
L 263.170781 30.277321 
L 264.950955 28.145079 
L 266.731128 30.447901 
L 268.511302 34.854534 
L 270.291476 39.602327 
L 272.071649 39.005299 
L 273.851823 39.829766 
L 277.41217 50.888995 
L 279.192344 53.305536 
L 280.972517 55.01133 
L 282.752691 60.071851 
L 284.532864 56.518114 
L 286.313038 65.075513 
L 288.093212 71.18794 
L 289.873385 71.045791 
L 291.653559 73.803491 
L 293.433732 84.521561 
L 295.213906 90.633989 
L 296.994079 91.316306 
L 298.774253 100.556022 
L 300.554427 106.924318 
L 302.3346 109.426149 
L 304.114774 114.799399 
L 305.894947 117.500239 
L 307.675121 127.479133 
L 309.455295 126.853675 
L 311.235468 135.837522 
L 314.795815 148.773124 
L 316.575989 152.070992 
L 318.356163 162.988072 
L 320.136336 165.120314 
L 321.91651 169.896536 
L 323.696683 180.387168 
L 325.476857 184.651652 
L 327.257031 185.476119 
L 329.037204 196.478488 
L 330.817378 200.202804 
L 332.597551 208.191605 
L 334.377725 215.583378 
L 336.157899 219.705712 
L 337.938072 224.169206 
L 339.718246 229.570886 
L 341.498419 233.83537 
L 343.278593 238.441013 
L 345.058767 240.914414 
L 346.83894 246.827832 
L 348.619114 252.030503 
L 350.399287 254.674484 
L 352.179461 260.730051 
L 353.959635 262.976013 
L 355.739808 268.263973 
L 357.519982 268.661992 
L 359.300155 271.78928 
L 361.080329 274.092102 
L 362.860503 276.679222 
L 366.42085 280.744697 
L 368.201023 282.308342 
L 371.76137 284.895462 
L 373.541544 285.748359 
L 375.321718 285.606209 
L 377.101891 286.459106 
L 382.442412 286.686545 
L 432.287273 286.686545 
L 432.287273 286.686545 
" style="fill:none;stroke:#1f77b4;stroke-linecap:square;stroke-width:1.5;"/>
   </g>
   <g id="line2d_36">
    <path clip-path="url(#p11aba7e1f1)" d="M 78.032727 286.686545 
L 131.437935 286.658116 
L 136.778456 285.833649 
L 140.338803 283.843556 
L 142.118977 282.990659 
L 143.89915 280.403539 
L 145.679324 278.868324 
L 149.239671 273.864663 
L 152.800018 270.282496 
L 154.580192 267.240497 
L 156.360365 261.696668 
L 158.140539 259.450706 
L 159.920713 254.987212 
L 163.48106 249.699252 
L 165.261233 243.330955 
L 168.821581 233.209913 
L 170.601754 227.040625 
L 172.381928 224.680944 
L 174.162101 218.028349 
L 175.942275 214.503042 
L 177.722449 205.405475 
L 179.502622 202.107607 
L 183.062969 188.006379 
L 184.843143 182.576269 
L 186.623317 177.999056 
L 188.40349 171.65919 
L 190.183664 167.991733 
L 191.963837 165.205604 
L 193.744011 154.970841 
L 195.524185 150.962226 
L 197.304358 142.092099 
L 199.084532 140.272585 
L 202.644879 123.669527 
L 204.425053 120.0305 
L 206.205226 112.667157 
L 207.9854 109.284 
L 209.765573 101.465779 
L 211.545747 98.793368 
L 213.325921 95.012192 
L 215.106094 84.265692 
L 216.886268 85.971486 
L 218.666441 79.773769 
L 220.446615 74.229939 
L 222.226788 72.410426 
L 224.006962 67.492054 
L 225.787136 56.120096 
L 227.567309 57.342581 
L 229.347483 56.404395 
L 231.127656 48.245015 
L 232.90783 52.25363 
L 234.688004 40.426794 
L 236.468177 38.237692 
L 238.248351 40.313074 
L 240.028524 38.63571 
L 241.808698 32.409563 
L 243.588872 36.332889 
L 245.369045 27.633341 
L 247.149219 33.575189 
L 248.929392 27.519621 
L 250.709566 30.447901 
L 252.48974 27.88921 
L 254.269913 25.984407 
L 256.050087 31.641956 
L 257.83026 24.904071 
L 259.610434 27.9745 
L 261.390608 30.305751 
L 263.170781 30.362611 
L 264.950955 33.29089 
L 266.731128 29.964592 
L 268.511302 33.37618 
L 270.291476 41.620849 
L 272.071649 37.953393 
L 273.851823 40.398364 
L 275.631996 43.156064 
L 277.41217 46.169633 
L 279.192344 51.912471 
L 280.972517 51.031145 
L 282.752691 59.986562 
L 284.532864 63.796168 
L 286.313038 63.654018 
L 288.093212 72.495715 
L 289.873385 69.396857 
L 291.653559 81.053114 
L 293.433732 84.549991 
L 295.213906 87.193971 
L 296.994079 97.030715 
L 298.774253 98.850228 
L 300.554427 105.843982 
L 302.3346 110.335906 
L 304.114774 112.525008 
L 305.894947 120.08736 
L 307.675121 125.943918 
L 311.235468 138.737371 
L 313.015642 140.585314 
L 314.795815 146.868321 
L 316.575989 153.606206 
L 320.136336 165.177174 
L 321.91651 172.313077 
L 323.696683 178.055916 
L 327.257031 192.242434 
L 329.037204 196.393198 
L 330.817378 201.652729 
L 332.597551 207.537717 
L 334.377725 212.399229 
L 336.157899 219.108685 
L 337.938072 222.804571 
L 339.718246 228.774849 
L 341.498419 231.731558 
L 343.278593 239.123331 
L 346.83894 248.533626 
L 348.619114 251.120747 
L 350.399287 256.550857 
L 352.179461 260.189883 
L 355.739808 266.44446 
L 357.519982 269.998197 
L 359.300155 272.244159 
L 361.080329 274.888139 
L 362.860503 277.27625 
L 364.640676 279.209483 
L 366.42085 281.540734 
L 368.201023 282.87694 
L 369.981197 283.530827 
L 371.76137 284.611163 
L 373.541544 285.46406 
L 375.321718 286.146377 
L 377.101891 286.515966 
L 378.882065 286.658116 
L 386.002759 286.686545 
L 432.287273 286.686545 
L 432.287273 286.686545 
" style="fill:none;stroke:#ff7f0e;stroke-linecap:square;stroke-width:1.5;"/>
   </g>
   <g id="line2d_37">
    <path clip-path="url(#p11aba7e1f1)" d="M 78.032727 286.686545 
L 131.437935 286.658116 
L 133.218109 286.231667 
L 134.998282 286.061088 
L 136.778456 285.634639 
L 138.55863 284.469014 
L 140.338803 283.644547 
L 142.118977 282.308342 
L 143.89915 280.744697 
L 147.459497 276.451783 
L 149.239671 274.71756 
L 151.019845 272.102009 
L 152.800018 270.424645 
L 154.580192 265.335694 
L 158.140539 258.31351 
L 159.920713 255.925399 
L 161.700886 252.99712 
L 163.48106 247.282711 
L 167.041407 238.725312 
L 168.821581 233.750081 
L 172.381928 225.84657 
L 174.162101 216.692144 
L 175.942275 212.910968 
L 177.722449 208.390614 
L 179.502622 203.330093 
L 181.282796 192.043425 
L 183.062969 188.120099 
L 184.843143 182.917428 
L 186.623317 179.363691 
L 190.183664 166.598668 
L 191.963837 162.476334 
L 193.744011 160.429381 
L 195.524185 152.66802 
L 197.304358 139.277539 
L 199.084532 138.851091 
L 200.864705 134.245448 
L 204.425053 121.622574 
L 206.205226 116.164034 
L 207.9854 109.795738 
L 209.765573 101.295199 
L 211.545747 98.992378 
L 215.106094 86.852812 
L 216.886268 85.687187 
L 218.666441 74.08779 
L 220.446615 75.196555 
L 222.226788 68.742969 
L 224.006962 64.450055 
L 225.787136 61.919794 
L 227.567309 54.073143 
L 229.347483 53.817274 
L 231.127656 51.457593 
L 232.90783 48.159725 
L 234.688004 47.221539 
L 236.468177 40.426794 
L 238.248351 43.667802 
L 240.028524 40.711093 
L 241.808698 32.466423 
L 243.588872 32.665432 
L 245.369045 30.789059 
L 247.149219 28.031359 
L 248.929392 26.410855 
L 250.709566 28.486238 
L 252.48974 25.18837 
L 254.269913 24.960931 
L 256.050087 31.698816 
L 257.83026 28.00293 
L 259.610434 25.15994 
L 261.390608 29.395994 
L 263.170781 31.812535 
L 264.950955 35.650571 
L 266.731128 33.40461 
L 268.511302 33.035021 
L 270.291476 35.849581 
L 272.071649 34.968254 
L 273.851823 45.146156 
L 275.631996 46.027483 
L 277.41217 46.226492 
L 280.972517 55.153479 
L 282.752691 59.162095 
L 284.532864 59.787552 
L 286.313038 63.682448 
L 288.093212 72.211416 
L 289.873385 73.035883 
L 293.433732 82.07659 
L 295.213906 85.147019 
L 296.994079 89.525223 
L 298.774253 99.958994 
L 300.554427 100.698171 
L 302.3346 107.436057 
L 304.114774 111.89955 
L 305.894947 119.348183 
L 307.675121 124.664573 
L 309.455295 133.051392 
L 311.235468 140.670604 
L 313.015642 137.941334 
L 314.795815 150.564208 
L 316.575989 158.0697 
L 318.356163 162.817492 
L 320.136336 168.446612 
L 321.91651 172.256218 
L 323.696683 180.927336 
L 325.476857 184.765371 
L 327.257031 191.531686 
L 329.037204 196.734357 
L 332.597551 209.215081 
L 334.377725 212.086501 
L 336.157899 218.596947 
L 337.938072 223.685898 
L 339.718246 230.708082 
L 341.498419 235.143146 
L 345.058767 241.483012 
L 346.83894 247.680729 
L 348.619114 252.570671 
L 350.399287 254.759773 
L 352.179461 258.37037 
L 357.519982 270.367786 
L 359.300155 272.301019 
L 361.080329 273.267635 
L 362.860503 277.21939 
L 364.640676 278.754605 
L 366.42085 281.171146 
L 368.201023 282.507351 
L 369.981197 283.104379 
L 371.76137 284.838602 
L 373.541544 285.663069 
L 375.321718 286.004228 
L 377.101891 286.459106 
L 380.662238 286.686545 
L 432.287273 286.686545 
L 432.287273 286.686545 
" style="fill:none;stroke:#2ca02c;stroke-linecap:square;stroke-width:1.5;"/>
   </g>
   <g id="line2d_38">
    <path clip-path="url(#p11aba7e1f1)" d="M 78.032727 286.686545 
L 131.437935 286.601256 
L 133.218109 286.572826 
L 134.998282 286.117948 
L 136.778456 285.46406 
L 138.55863 285.293481 
L 140.338803 283.445537 
L 143.89915 281.114286 
L 145.679324 279.294773 
L 147.459497 276.139054 
L 149.239671 275.485167 
L 151.019845 271.93143 
L 152.800018 268.946291 
L 154.580192 267.922815 
L 156.360365 263.231882 
L 158.140539 260.275173 
L 159.920713 255.044072 
L 161.700886 251.774634 
L 163.48106 247.083702 
L 165.261233 243.927983 
L 167.041407 238.554733 
L 168.821581 234.261819 
L 170.601754 227.381784 
L 174.162101 219.535133 
L 175.942275 212.967827 
L 177.722449 205.035887 
L 179.502622 204.694728 
L 181.282796 197.757833 
L 183.062969 188.518118 
L 184.843143 184.736941 
L 186.623317 178.766663 
L 190.183664 165.461473 
L 191.963837 161.026409 
L 193.744011 153.265048 
L 197.304358 144.36649 
L 199.084532 136.519839 
L 200.864705 123.783246 
L 202.644879 125.688049 
L 204.425053 123.243078 
L 206.205226 113.235755 
L 207.9854 107.464486 
L 209.765573 104.735217 
L 211.545747 97.286584 
L 213.325921 91.287876 
L 215.106094 86.198925 
L 216.886268 86.653803 
L 218.666441 79.148311 
L 220.446615 70.391903 
L 222.226788 65.89998 
L 224.006962 64.251046 
L 225.787136 60.981608 
L 227.567309 59.503253 
L 229.347483 52.594789 
L 231.127656 46.539221 
L 232.90783 45.828474 
L 234.688004 47.790137 
L 236.468177 41.905148 
L 238.248351 33.006591 
L 240.028524 38.60728 
L 241.808698 36.588758 
L 243.588872 27.74706 
L 245.369045 33.34775 
L 247.149219 28.941116 
L 248.929392 29.339135 
L 250.709566 27.178463 
L 252.48974 30.931209 
L 254.269913 23.937455 
L 256.050087 28.685247 
L 257.83026 24.506052 
L 259.610434 33.774198 
L 261.390608 34.740815 
L 263.170781 30.248891 
L 264.950955 33.31932 
L 266.731128 28.912686 
L 268.511302 37.640664 
L 270.291476 35.025114 
L 272.071649 38.237692 
L 273.851823 37.839673 
L 275.631996 48.586174 
L 277.41217 49.52436 
L 279.192344 52.19677 
L 280.972517 52.452639 
L 282.752691 55.977946 
L 284.532864 63.341289 
L 286.313038 70.192894 
L 288.093212 71.443809 
L 293.433732 84.663711 
L 295.213906 88.729186 
L 296.994079 93.221109 
L 298.774253 98.082621 
L 300.554427 100.072714 
L 302.3346 112.155419 
L 304.114774 113.406335 
L 305.894947 123.896966 
L 307.675121 124.806723 
L 313.015642 146.953611 
L 314.795815 147.29477 
L 316.575989 156.733495 
L 320.136336 167.934873 
L 321.91651 172.966965 
L 323.696683 181.126345 
L 325.476857 185.476119 
L 327.257031 192.811032 
L 329.037204 195.654021 
L 330.817378 200.487103 
L 334.377725 213.053117 
L 336.157899 215.583378 
L 337.938072 223.828047 
L 339.718246 227.211205 
L 341.498419 231.24825 
L 343.278593 238.128285 
L 345.058767 243.501535 
L 346.83894 249.955121 
L 348.619114 251.433475 
L 352.179461 260.303603 
L 353.959635 262.720144 
L 355.739808 265.847432 
L 357.519982 269.884477 
L 359.300155 272.784327 
L 361.080329 274.092102 
L 362.860503 275.769466 
L 364.640676 278.982044 
L 366.42085 281.000566 
L 368.201023 282.73479 
L 369.981197 283.701406 
L 371.76137 284.298434 
L 373.541544 285.4072 
L 375.321718 286.203237 
L 377.101891 286.487536 
L 378.882065 286.658116 
L 386.002759 286.686545 
L 432.287273 286.686545 
L 432.287273 286.686545 
" style="fill:none;stroke:#d62728;stroke-linecap:square;stroke-width:1.5;"/>
   </g>
   <g id="patch_3">
    <path d="M 60.32 299.824 
L 60.32 10.8 
" style="fill:none;stroke:#000000;stroke-linecap:square;stroke-linejoin:miter;stroke-width:0.8;"/>
   </g>
   <g id="patch_4">
    <path d="M 450 299.824 
L 450 10.8 
" style="fill:none;stroke:#000000;stroke-linecap:square;stroke-linejoin:miter;stroke-width:0.8;"/>
   </g>
   <g id="patch_5">
    <path d="M 60.32 299.824 
L 450 299.824 
" style="fill:none;stroke:#000000;stroke-linecap:square;stroke-linejoin:miter;stroke-width:0.8;"/>
   </g>
   <g id="patch_6">
    <path d="M 60.32 10.8 
L 450 10.8 
" style="fill:none;stroke:#000000;stroke-linecap:square;stroke-linejoin:miter;stroke-width:0.8;"/>
   </g>
   <g id="legend_1">
    <g id="patch_7">
     <path d="M 363.74375 77.5125 
L 443 77.5125 
Q 445 77.5125 445 75.5125 
L 445 17.8 
Q 445 15.8 443 15.8 
L 363.74375 15.8 
Q 361.74375 15.8 361.74375 17.8 
L 361.74375 75.5125 
Q 361.74375 77.5125 363.74375 77.5125 
z
" style="fill:#ffffff;opacity:0.8;stroke:#cccccc;stroke-linejoin:miter;"/>
    </g>
    <g id="line2d_39">
     <path d="M 365.74375 23.898438 
L 385.74375 23.898438 
" style="fill:none;stroke:#1f77b4;stroke-linecap:square;stroke-width:1.5;"/>
    </g>
    <g id="line2d_40"/>
    <g id="text_20">
     <!-- particle 0 -->
     <g transform="translate(393.74375 27.398438)scale(0.1 -0.1)">
      <defs>
       <path d="M 1159 525 
L 1159 -1331 
L 581 -1331 
L 581 3500 
L 1159 3500 
L 1159 2969 
Q 1341 3281 1617 3432 
Q 1894 3584 2278 3584 
Q 2916 3584 3314 3078 
Q 3713 2572 3713 1747 
Q 3713 922 3314 415 
Q 2916 -91 2278 -91 
Q 1894 -91 1617 61 
Q 1341 213 1159 525 
z
M 3116 1747 
Q 3116 2381 2855 2742 
Q 2594 3103 2138 3103 
Q 1681 3103 1420 2742 
Q 1159 2381 1159 1747 
Q 1159 1113 1420 752 
Q 1681 391 2138 391 
Q 2594 391 2855 752 
Q 3116 1113 3116 1747 
z
" id="DejaVuSans-70" transform="scale(0.015625)"/>
       <path d="M 3122 3366 
L 3122 2828 
Q 2878 2963 2633 3030 
Q 2388 3097 2138 3097 
Q 1578 3097 1268 2742 
Q 959 2388 959 1747 
Q 959 1106 1268 751 
Q 1578 397 2138 397 
Q 2388 397 2633 464 
Q 2878 531 3122 666 
L 3122 134 
Q 2881 22 2623 -34 
Q 2366 -91 2075 -91 
Q 1284 -91 818 406 
Q 353 903 353 1747 
Q 353 2603 823 3093 
Q 1294 3584 2113 3584 
Q 2378 3584 2631 3529 
Q 2884 3475 3122 3366 
z
" id="DejaVuSans-63" transform="scale(0.015625)"/>
       <path d="M 3597 1894 
L 3597 1613 
L 953 1613 
Q 991 1019 1311 708 
Q 1631 397 2203 397 
Q 2534 397 2845 478 
Q 3156 559 3463 722 
L 3463 178 
Q 3153 47 2828 -22 
Q 2503 -91 2169 -91 
Q 1331 -91 842 396 
Q 353 884 353 1716 
Q 353 2575 817 3079 
Q 1281 3584 2069 3584 
Q 2775 3584 3186 3129 
Q 3597 2675 3597 1894 
z
M 3022 2063 
Q 3016 2534 2758 2815 
Q 2500 3097 2075 3097 
Q 1594 3097 1305 2825 
Q 1016 2553 972 2059 
L 3022 2063 
z
" id="DejaVuSans-65" transform="scale(0.015625)"/>
       <path id="DejaVuSans-20" transform="scale(0.015625)"/>
      </defs>
      <use xlink:href="#DejaVuSans-70"/>
      <use x="63.476562" xlink:href="#DejaVuSans-61"/>
      <use x="124.755859" xlink:href="#DejaVuSans-72"/>
      <use x="165.869141" xlink:href="#DejaVuSans-74"/>
      <use x="205.078125" xlink:href="#DejaVuSans-69"/>
      <use x="232.861328" xlink:href="#DejaVuSans-63"/>
      <use x="287.841797" xlink:href="#DejaVuSans-6c"/>
      <use x="315.625" xlink:href="#DejaVuSans-65"/>
      <use x="377.148438" xlink:href="#DejaVuSans-20"/>
      <use x="408.935547" xlink:href="#DejaVuSans-30"/>
     </g>
    </g>
    <g id="line2d_41">
     <path d="M 365.74375 38.576563 
L 385.74375 38.576563 
" style="fill:none;stroke:#ff7f0e;stroke-linecap:square;stroke-width:1.5;"/>
    </g>
    <g id="line2d_42"/>
    <g id="text_21">
     <!-- particle 1 -->
     <g transform="translate(393.74375 42.076563)scale(0.1 -0.1)">
      <use xlink:href="#DejaVuSans-70"/>
      <use x="63.476562" xlink:href="#DejaVuSans-61"/>
      <use x="124.755859" xlink:href="#DejaVuSans-72"/>
      <use x="165.869141" xlink:href="#DejaVuSans-74"/>
      <use x="205.078125" xlink:href="#DejaVuSans-69"/>
      <use x="232.861328" xlink:href="#DejaVuSans-63"/>
      <use x="287.841797" xlink:href="#DejaVuSans-6c"/>
      <use x="315.625" xlink:href="#DejaVuSans-65"/>
      <use x="377.148438" xlink:href="#DejaVuSans-20"/>
      <use x="408.935547" xlink:href="#DejaVuSans-31"/>
     </g>
    </g>
    <g id="line2d_43">
     <path d="M 365.74375 53.254688 
L 385.74375 53.254688 
" style="fill:none;stroke:#2ca02c;stroke-linecap:square;stroke-width:1.5;"/>
    </g>
    <g id="line2d_44"/>
    <g id="text_22">
     <!-- particle 2 -->
     <g transform="translate(393.74375 56.754688)scale(0.1 -0.1)">
      <use xlink:href="#DejaVuSans-70"/>
      <use x="63.476562" xlink:href="#DejaVuSans-61"/>
      <use x="124.755859" xlink:href="#DejaVuSans-72"/>
      <use x="165.869141" xlink:href="#DejaVuSans-74"/>
      <use x="205.078125" xlink:href="#DejaVuSans-69"/>
      <use x="232.861328" xlink:href="#DejaVuSans-63"/>
      <use x="287.841797" xlink:href="#DejaVuSans-6c"/>
      <use x="315.625" xlink:href="#DejaVuSans-65"/>
      <use x="377.148438" xlink:href="#DejaVuSans-20"/>
      <use x="408.935547" xlink:href="#DejaVuSans-32"/>
     </g>
    </g>
    <g id="line2d_45">
     <path d="M 365.74375 67.932813 
L 385.74375 67.932813 
" style="fill:none;stroke:#d62728;stroke-linecap:square;stroke-width:1.5;"/>
    </g>
    <g id="line2d_46"/>
    <g id="text_23">
     <!-- particle 3 -->
     <g transform="translate(393.74375 71.432813)scale(0.1 -0.1)">
      <defs>
       <path d="M 2597 2516 
Q 3050 2419 3304 2112 
Q 3559 1806 3559 1356 
Q 3559 666 3084 287 
Q 2609 -91 1734 -91 
Q 1441 -91 1130 -33 
Q 819 25 488 141 
L 488 750 
Q 750 597 1062 519 
Q 1375 441 1716 441 
Q 2309 441 2620 675 
Q 2931 909 2931 1356 
Q 2931 1769 2642 2001 
Q 2353 2234 1838 2234 
L 1294 2234 
L 1294 2753 
L 1863 2753 
Q 2328 2753 2575 2939 
Q 2822 3125 2822 3475 
Q 2822 3834 2567 4026 
Q 2313 4219 1838 4219 
Q 1578 4219 1281 4162 
Q 984 4106 628 3988 
L 628 4550 
Q 988 4650 1302 4700 
Q 1616 4750 1894 4750 
Q 2613 4750 3031 4423 
Q 3450 4097 3450 3541 
Q 3450 3153 3228 2886 
Q 3006 2619 2597 2516 
z
" id="DejaVuSans-33" transform="scale(0.015625)"/>
      </defs>
      <use xlink:href="#DejaVuSans-70"/>
      <use x="63.476562" xlink:href="#DejaVuSans-61"/>
      <use x="124.755859" xlink:href="#DejaVuSans-72"/>
      <use x="165.869141" xlink:href="#DejaVuSans-74"/>
      <use x="205.078125" xlink:href="#DejaVuSans-69"/>
      <use x="232.861328" xlink:href="#DejaVuSans-63"/>
      <use x="287.841797" xlink:href="#DejaVuSans-6c"/>
      <use x="315.625" xlink:href="#DejaVuSans-65"/>
      <use x="377.148438" xlink:href="#DejaVuSans-20"/>
      <use x="408.935547" xlink:href="#DejaVuSans-33"/>
     </g>
    </g>
   </g>
  </g>
 </g>
 <defs>
  <clipPath id="p11aba7e1f1">
   <rect height="289.024" width="389.68" x="60.32" y="10.8"/>
  </clipPath>
 </defs>
</svg>
