<?xml version="1.0" encoding="utf-8" standalone="no"?>
<!DOCTYPE svg PUBLIC "-//W3C//DTD SVG 1.1//EN"
  "http://www.w3.org/Graphics/SVG/1.1/DTD/svg11.dtd">
<svg height="345.6pt" version="1.1" viewBox="0 0 460.8 345.6" width="460.8pt" xmlns="http://www.w3.org/2000/svg" xmlns:xlink="http://www.w3.org/1999/xlink">
 <metadata>
  <rdf:RDF xmlns:cc="http://creativecommons.org/ns#" xmlns:dc="http://purl.org/dc/elements/1.1/" xmlns:rdf="http://www.w3.org/1999/02/22-rdf-syntax-ns#">
   <cc:Work>
    <dc:type rdf:resource="http://purl.org/dc/dcmitype/StillImage"/>
    <dc:date>2021-11-16T22:05:48.704517</dc:date>
    <dc:format>image/svg+xml</dc:format>
    <dc:creator>
     <cc:Agent>
      <dc:title>Matplotlib v3.4.3, https://matplotlib.org/</dc:title>
     </cc:Agent>
    </dc:creator>
   </cc:Work>
  </rdf:RDF>
 </metadata>
 <defs>
  <style type="text/css">*{stroke-linecap:butt;stroke-linejoin:round;}</style>
 </defs>
 <g id="figure_1">
  <g id="patch_1">
   <path d="M 0 345.6 
L 460.8 345.6 
L 460.8 0 
L 0 0 
z
" style="fill:#ffffff;"/>
  </g>
  <g id="axes_1">
   <g id="patch_2">
    <path d="M 60.32 301.624 
L 450 301.624 
L 450 10.8 
L 60.32 10.8 
z
" style="fill:#ffffff;"/>
   </g>
   <g id="matplotlib.axis_1">
    <g id="xtick_1">
     <g id="line2d_1">
      <path clip-path="url(#p01524d1052)" d="M 78.032727 301.624 
L 78.032727 10.8 
" style="fill:none;stroke:#b0b0b0;stroke-linecap:square;stroke-width:0.8;"/>
     </g>
     <g id="line2d_2">
      <defs>
       <path d="M 0 0 
L 0 3.5 
" id="m553a23a856" style="stroke:#000000;stroke-width:0.8;"/>
      </defs>
      <g>
       <use style="stroke:#000000;stroke-width:0.8;" x="78.032727" xlink:href="#m553a23a856" y="301.624"/>
      </g>
     </g>
     <g id="text_1">
      <!-- −2.0 -->
      <g transform="translate(65.891321 316.222437)scale(0.1 -0.1)">
       <defs>
        <path d="M 678 2272 
L 4684 2272 
L 4684 1741 
L 678 1741 
L 678 2272 
z
" id="DejaVuSans-2212" transform="scale(0.015625)"/>
        <path d="M 1228 531 
L 3431 531 
L 3431 0 
L 469 0 
L 469 531 
Q 828 903 1448 1529 
Q 2069 2156 2228 2338 
Q 2531 2678 2651 2914 
Q 2772 3150 2772 3378 
Q 2772 3750 2511 3984 
Q 2250 4219 1831 4219 
Q 1534 4219 1204 4116 
Q 875 4013 500 3803 
L 500 4441 
Q 881 4594 1212 4672 
Q 1544 4750 1819 4750 
Q 2544 4750 2975 4387 
Q 3406 4025 3406 3419 
Q 3406 3131 3298 2873 
Q 3191 2616 2906 2266 
Q 2828 2175 2409 1742 
Q 1991 1309 1228 531 
z
" id="DejaVuSans-32" transform="scale(0.015625)"/>
        <path d="M 684 794 
L 1344 794 
L 1344 0 
L 684 0 
L 684 794 
z
" id="DejaVuSans-2e" transform="scale(0.015625)"/>
        <path d="M 2034 4250 
Q 1547 4250 1301 3770 
Q 1056 3291 1056 2328 
Q 1056 1369 1301 889 
Q 1547 409 2034 409 
Q 2525 409 2770 889 
Q 3016 1369 3016 2328 
Q 3016 3291 2770 3770 
Q 2525 4250 2034 4250 
z
M 2034 4750 
Q 2819 4750 3233 4129 
Q 3647 3509 3647 2328 
Q 3647 1150 3233 529 
Q 2819 -91 2034 -91 
Q 1250 -91 836 529 
Q 422 1150 422 2328 
Q 422 3509 836 4129 
Q 1250 4750 2034 4750 
z
" id="DejaVuSans-30" transform="scale(0.015625)"/>
       </defs>
       <use xlink:href="#DejaVuSans-2212"/>
       <use x="83.789062" xlink:href="#DejaVuSans-32"/>
       <use x="147.412109" xlink:href="#DejaVuSans-2e"/>
       <use x="179.199219" xlink:href="#DejaVuSans-30"/>
      </g>
     </g>
    </g>
    <g id="xtick_2">
     <g id="line2d_3">
      <path clip-path="url(#p01524d1052)" d="M 122.314545 301.624 
L 122.314545 10.8 
" style="fill:none;stroke:#b0b0b0;stroke-linecap:square;stroke-width:0.8;"/>
     </g>
     <g id="line2d_4">
      <g>
       <use style="stroke:#000000;stroke-width:0.8;" x="122.314545" xlink:href="#m553a23a856" y="301.624"/>
      </g>
     </g>
     <g id="text_2">
      <!-- −1.5 -->
      <g transform="translate(110.173139 316.222437)scale(0.1 -0.1)">
       <defs>
        <path d="M 794 531 
L 1825 531 
L 1825 4091 
L 703 3866 
L 703 4441 
L 1819 4666 
L 2450 4666 
L 2450 531 
L 3481 531 
L 3481 0 
L 794 0 
L 794 531 
z
" id="DejaVuSans-31" transform="scale(0.015625)"/>
        <path d="M 691 4666 
L 3169 4666 
L 3169 4134 
L 1269 4134 
L 1269 2991 
Q 1406 3038 1543 3061 
Q 1681 3084 1819 3084 
Q 2600 3084 3056 2656 
Q 3513 2228 3513 1497 
Q 3513 744 3044 326 
Q 2575 -91 1722 -91 
Q 1428 -91 1123 -41 
Q 819 9 494 109 
L 494 744 
Q 775 591 1075 516 
Q 1375 441 1709 441 
Q 2250 441 2565 725 
Q 2881 1009 2881 1497 
Q 2881 1984 2565 2268 
Q 2250 2553 1709 2553 
Q 1456 2553 1204 2497 
Q 953 2441 691 2322 
L 691 4666 
z
" id="DejaVuSans-35" transform="scale(0.015625)"/>
       </defs>
       <use xlink:href="#DejaVuSans-2212"/>
       <use x="83.789062" xlink:href="#DejaVuSans-31"/>
       <use x="147.412109" xlink:href="#DejaVuSans-2e"/>
       <use x="179.199219" xlink:href="#DejaVuSans-35"/>
      </g>
     </g>
    </g>
    <g id="xtick_3">
     <g id="line2d_5">
      <path clip-path="url(#p01524d1052)" d="M 166.596364 301.624 
L 166.596364 10.8 
" style="fill:none;stroke:#b0b0b0;stroke-linecap:square;stroke-width:0.8;"/>
     </g>
     <g id="line2d_6">
      <g>
       <use style="stroke:#000000;stroke-width:0.8;" x="166.596364" xlink:href="#m553a23a856" y="301.624"/>
      </g>
     </g>
     <g id="text_3">
      <!-- −1.0 -->
      <g transform="translate(154.454957 316.222437)scale(0.1 -0.1)">
       <use xlink:href="#DejaVuSans-2212"/>
       <use x="83.789062" xlink:href="#DejaVuSans-31"/>
       <use x="147.412109" xlink:href="#DejaVuSans-2e"/>
       <use x="179.199219" xlink:href="#DejaVuSans-30"/>
      </g>
     </g>
    </g>
    <g id="xtick_4">
     <g id="line2d_7">
      <path clip-path="url(#p01524d1052)" d="M 210.878182 301.624 
L 210.878182 10.8 
" style="fill:none;stroke:#b0b0b0;stroke-linecap:square;stroke-width:0.8;"/>
     </g>
     <g id="line2d_8">
      <g>
       <use style="stroke:#000000;stroke-width:0.8;" x="210.878182" xlink:href="#m553a23a856" y="301.624"/>
      </g>
     </g>
     <g id="text_4">
      <!-- −0.5 -->
      <g transform="translate(198.736776 316.222437)scale(0.1 -0.1)">
       <use xlink:href="#DejaVuSans-2212"/>
       <use x="83.789062" xlink:href="#DejaVuSans-30"/>
       <use x="147.412109" xlink:href="#DejaVuSans-2e"/>
       <use x="179.199219" xlink:href="#DejaVuSans-35"/>
      </g>
     </g>
    </g>
    <g id="xtick_5">
     <g id="line2d_9">
      <path clip-path="url(#p01524d1052)" d="M 255.16 301.624 
L 255.16 10.8 
" style="fill:none;stroke:#b0b0b0;stroke-linecap:square;stroke-width:0.8;"/>
     </g>
     <g id="line2d_10">
      <g>
       <use style="stroke:#000000;stroke-width:0.8;" x="255.16" xlink:href="#m553a23a856" y="301.624"/>
      </g>
     </g>
     <g id="text_5">
      <!-- 0.0 -->
      <g transform="translate(247.208438 316.222437)scale(0.1 -0.1)">
       <use xlink:href="#DejaVuSans-30"/>
       <use x="63.623047" xlink:href="#DejaVuSans-2e"/>
       <use x="95.410156" xlink:href="#DejaVuSans-30"/>
      </g>
     </g>
    </g>
    <g id="xtick_6">
     <g id="line2d_11">
      <path clip-path="url(#p01524d1052)" d="M 299.441818 301.624 
L 299.441818 10.8 
" style="fill:none;stroke:#b0b0b0;stroke-linecap:square;stroke-width:0.8;"/>
     </g>
     <g id="line2d_12">
      <g>
       <use style="stroke:#000000;stroke-width:0.8;" x="299.441818" xlink:href="#m553a23a856" y="301.624"/>
      </g>
     </g>
     <g id="text_6">
      <!-- 0.5 -->
      <g transform="translate(291.490256 316.222437)scale(0.1 -0.1)">
       <use xlink:href="#DejaVuSans-30"/>
       <use x="63.623047" xlink:href="#DejaVuSans-2e"/>
       <use x="95.410156" xlink:href="#DejaVuSans-35"/>
      </g>
     </g>
    </g>
    <g id="xtick_7">
     <g id="line2d_13">
      <path clip-path="url(#p01524d1052)" d="M 343.723636 301.624 
L 343.723636 10.8 
" style="fill:none;stroke:#b0b0b0;stroke-linecap:square;stroke-width:0.8;"/>
     </g>
     <g id="line2d_14">
      <g>
       <use style="stroke:#000000;stroke-width:0.8;" x="343.723636" xlink:href="#m553a23a856" y="301.624"/>
      </g>
     </g>
     <g id="text_7">
      <!-- 1.0 -->
      <g transform="translate(335.772074 316.222437)scale(0.1 -0.1)">
       <use xlink:href="#DejaVuSans-31"/>
       <use x="63.623047" xlink:href="#DejaVuSans-2e"/>
       <use x="95.410156" xlink:href="#DejaVuSans-30"/>
      </g>
     </g>
    </g>
    <g id="xtick_8">
     <g id="line2d_15">
      <path clip-path="url(#p01524d1052)" d="M 388.005455 301.624 
L 388.005455 10.8 
" style="fill:none;stroke:#b0b0b0;stroke-linecap:square;stroke-width:0.8;"/>
     </g>
     <g id="line2d_16">
      <g>
       <use style="stroke:#000000;stroke-width:0.8;" x="388.005455" xlink:href="#m553a23a856" y="301.624"/>
      </g>
     </g>
     <g id="text_8">
      <!-- 1.5 -->
      <g transform="translate(380.053892 316.222437)scale(0.1 -0.1)">
       <use xlink:href="#DejaVuSans-31"/>
       <use x="63.623047" xlink:href="#DejaVuSans-2e"/>
       <use x="95.410156" xlink:href="#DejaVuSans-35"/>
      </g>
     </g>
    </g>
    <g id="xtick_9">
     <g id="line2d_17">
      <path clip-path="url(#p01524d1052)" d="M 432.287273 301.624 
L 432.287273 10.8 
" style="fill:none;stroke:#b0b0b0;stroke-linecap:square;stroke-width:0.8;"/>
     </g>
     <g id="line2d_18">
      <g>
       <use style="stroke:#000000;stroke-width:0.8;" x="432.287273" xlink:href="#m553a23a856" y="301.624"/>
      </g>
     </g>
     <g id="text_9">
      <!-- 2.0 -->
      <g transform="translate(424.33571 316.222437)scale(0.1 -0.1)">
       <use xlink:href="#DejaVuSans-32"/>
       <use x="63.623047" xlink:href="#DejaVuSans-2e"/>
       <use x="95.410156" xlink:href="#DejaVuSans-30"/>
      </g>
     </g>
    </g>
    <g id="text_10">
     <!-- $V_x\/[a.u.]$ -->
     <g transform="translate(233.41 329.900562)scale(0.1 -0.1)">
      <defs>
       <path d="M 1319 0 
L 500 4666 
L 1119 4666 
L 1797 653 
L 4063 4666 
L 4750 4666 
L 2053 0 
L 1319 0 
z
" id="DejaVuSans-Oblique-56" transform="scale(0.015625)"/>
       <path d="M 3841 3500 
L 2234 1784 
L 3219 0 
L 2559 0 
L 1819 1388 
L 531 0 
L -166 0 
L 1556 1844 
L 641 3500 
L 1300 3500 
L 1972 2234 
L 3144 3500 
L 3841 3500 
z
" id="DejaVuSans-Oblique-78" transform="scale(0.015625)"/>
       <path d="M 550 4863 
L 1875 4863 
L 1875 4416 
L 1125 4416 
L 1125 -397 
L 1875 -397 
L 1875 -844 
L 550 -844 
L 550 4863 
z
" id="DejaVuSans-5b" transform="scale(0.015625)"/>
       <path d="M 3438 1997 
L 3047 0 
L 2472 0 
L 2578 531 
Q 2325 219 2001 64 
Q 1678 -91 1281 -91 
Q 834 -91 548 182 
Q 263 456 263 884 
Q 263 1497 752 1853 
Q 1241 2209 2100 2209 
L 2900 2209 
L 2931 2363 
Q 2938 2388 2941 2417 
Q 2944 2447 2944 2509 
Q 2944 2788 2717 2942 
Q 2491 3097 2081 3097 
Q 1800 3097 1504 3025 
Q 1209 2953 897 2809 
L 997 3341 
Q 1322 3463 1633 3523 
Q 1944 3584 2234 3584 
Q 2853 3584 3176 3315 
Q 3500 3047 3500 2534 
Q 3500 2431 3484 2292 
Q 3469 2153 3438 1997 
z
M 2816 1759 
L 2241 1759 
Q 1534 1759 1195 1570 
Q 856 1381 856 984 
Q 856 709 1029 553 
Q 1203 397 1509 397 
Q 1978 397 2328 733 
Q 2678 1069 2791 1631 
L 2816 1759 
z
" id="DejaVuSans-Oblique-61" transform="scale(0.015625)"/>
       <path d="M 428 1388 
L 838 3500 
L 1416 3500 
L 1006 1409 
Q 975 1256 961 1147 
Q 947 1038 947 966 
Q 947 700 1109 554 
Q 1272 409 1569 409 
Q 2031 409 2368 721 
Q 2706 1034 2809 1563 
L 3194 3500 
L 3769 3500 
L 3091 0 
L 2516 0 
L 2631 550 
Q 2388 244 2052 76 
Q 1716 -91 1338 -91 
Q 878 -91 622 161 
Q 366 413 366 863 
Q 366 956 381 1097 
Q 397 1238 428 1388 
z
" id="DejaVuSans-Oblique-75" transform="scale(0.015625)"/>
       <path d="M 1947 4863 
L 1947 -844 
L 622 -844 
L 622 -397 
L 1369 -397 
L 1369 4416 
L 622 4416 
L 622 4863 
L 1947 4863 
z
" id="DejaVuSans-5d" transform="scale(0.015625)"/>
      </defs>
      <use transform="translate(0 0.015625)" xlink:href="#DejaVuSans-Oblique-56"/>
      <use transform="translate(68.408203 -16.390625)scale(0.7)" xlink:href="#DejaVuSans-Oblique-78"/>
      <use transform="translate(128.804036 0.015625)" xlink:href="#DejaVuSans-5b"/>
      <use transform="translate(167.817708 0.015625)" xlink:href="#DejaVuSans-Oblique-61"/>
      <use transform="translate(229.097004 0.015625)" xlink:href="#DejaVuSans-2e"/>
      <use transform="translate(280.366536 0.015625)" xlink:href="#DejaVuSans-Oblique-75"/>
      <use transform="translate(343.745442 0.015625)" xlink:href="#DejaVuSans-2e"/>
      <use transform="translate(395.014973 0.015625)" xlink:href="#DejaVuSans-5d"/>
     </g>
    </g>
   </g>
   <g id="matplotlib.axis_2">
    <g id="ytick_1">
     <g id="line2d_19">
      <path clip-path="url(#p01524d1052)" d="M 60.32 288.404727 
L 450 288.404727 
" style="fill:none;stroke:#b0b0b0;stroke-linecap:square;stroke-width:0.8;"/>
     </g>
     <g id="line2d_20">
      <defs>
       <path d="M 0 0 
L -3.5 0 
" id="m60cacaaa30" style="stroke:#000000;stroke-width:0.8;"/>
      </defs>
      <g>
       <use style="stroke:#000000;stroke-width:0.8;" x="60.32" xlink:href="#m60cacaaa30" y="288.404727"/>
      </g>
     </g>
     <g id="text_11">
      <!-- 0.000 -->
      <g transform="translate(24.691875 292.203946)scale(0.1 -0.1)">
       <use xlink:href="#DejaVuSans-30"/>
       <use x="63.623047" xlink:href="#DejaVuSans-2e"/>
       <use x="95.410156" xlink:href="#DejaVuSans-30"/>
       <use x="159.033203" xlink:href="#DejaVuSans-30"/>
       <use x="222.65625" xlink:href="#DejaVuSans-30"/>
      </g>
     </g>
    </g>
    <g id="ytick_2">
     <g id="line2d_21">
      <path clip-path="url(#p01524d1052)" d="M 60.32 252.101296 
L 450 252.101296 
" style="fill:none;stroke:#b0b0b0;stroke-linecap:square;stroke-width:0.8;"/>
     </g>
     <g id="line2d_22">
      <g>
       <use style="stroke:#000000;stroke-width:0.8;" x="60.32" xlink:href="#m60cacaaa30" y="252.101296"/>
      </g>
     </g>
     <g id="text_12">
      <!-- 0.002 -->
      <g transform="translate(24.691875 255.900515)scale(0.1 -0.1)">
       <use xlink:href="#DejaVuSans-30"/>
       <use x="63.623047" xlink:href="#DejaVuSans-2e"/>
       <use x="95.410156" xlink:href="#DejaVuSans-30"/>
       <use x="159.033203" xlink:href="#DejaVuSans-30"/>
       <use x="222.65625" xlink:href="#DejaVuSans-32"/>
      </g>
     </g>
    </g>
    <g id="ytick_3">
     <g id="line2d_23">
      <path clip-path="url(#p01524d1052)" d="M 60.32 215.797865 
L 450 215.797865 
" style="fill:none;stroke:#b0b0b0;stroke-linecap:square;stroke-width:0.8;"/>
     </g>
     <g id="line2d_24">
      <g>
       <use style="stroke:#000000;stroke-width:0.8;" x="60.32" xlink:href="#m60cacaaa30" y="215.797865"/>
      </g>
     </g>
     <g id="text_13">
      <!-- 0.004 -->
      <g transform="translate(24.691875 219.597083)scale(0.1 -0.1)">
       <defs>
        <path d="M 2419 4116 
L 825 1625 
L 2419 1625 
L 2419 4116 
z
M 2253 4666 
L 3047 4666 
L 3047 1625 
L 3713 1625 
L 3713 1100 
L 3047 1100 
L 3047 0 
L 2419 0 
L 2419 1100 
L 313 1100 
L 313 1709 
L 2253 4666 
z
" id="DejaVuSans-34" transform="scale(0.015625)"/>
       </defs>
       <use xlink:href="#DejaVuSans-30"/>
       <use x="63.623047" xlink:href="#DejaVuSans-2e"/>
       <use x="95.410156" xlink:href="#DejaVuSans-30"/>
       <use x="159.033203" xlink:href="#DejaVuSans-30"/>
       <use x="222.65625" xlink:href="#DejaVuSans-34"/>
      </g>
     </g>
    </g>
    <g id="ytick_4">
     <g id="line2d_25">
      <path clip-path="url(#p01524d1052)" d="M 60.32 179.494433 
L 450 179.494433 
" style="fill:none;stroke:#b0b0b0;stroke-linecap:square;stroke-width:0.8;"/>
     </g>
     <g id="line2d_26">
      <g>
       <use style="stroke:#000000;stroke-width:0.8;" x="60.32" xlink:href="#m60cacaaa30" y="179.494433"/>
      </g>
     </g>
     <g id="text_14">
      <!-- 0.006 -->
      <g transform="translate(24.691875 183.293652)scale(0.1 -0.1)">
       <defs>
        <path d="M 2113 2584 
Q 1688 2584 1439 2293 
Q 1191 2003 1191 1497 
Q 1191 994 1439 701 
Q 1688 409 2113 409 
Q 2538 409 2786 701 
Q 3034 994 3034 1497 
Q 3034 2003 2786 2293 
Q 2538 2584 2113 2584 
z
M 3366 4563 
L 3366 3988 
Q 3128 4100 2886 4159 
Q 2644 4219 2406 4219 
Q 1781 4219 1451 3797 
Q 1122 3375 1075 2522 
Q 1259 2794 1537 2939 
Q 1816 3084 2150 3084 
Q 2853 3084 3261 2657 
Q 3669 2231 3669 1497 
Q 3669 778 3244 343 
Q 2819 -91 2113 -91 
Q 1303 -91 875 529 
Q 447 1150 447 2328 
Q 447 3434 972 4092 
Q 1497 4750 2381 4750 
Q 2619 4750 2861 4703 
Q 3103 4656 3366 4563 
z
" id="DejaVuSans-36" transform="scale(0.015625)"/>
       </defs>
       <use xlink:href="#DejaVuSans-30"/>
       <use x="63.623047" xlink:href="#DejaVuSans-2e"/>
       <use x="95.410156" xlink:href="#DejaVuSans-30"/>
       <use x="159.033203" xlink:href="#DejaVuSans-30"/>
       <use x="222.65625" xlink:href="#DejaVuSans-36"/>
      </g>
     </g>
    </g>
    <g id="ytick_5">
     <g id="line2d_27">
      <path clip-path="url(#p01524d1052)" d="M 60.32 143.191002 
L 450 143.191002 
" style="fill:none;stroke:#b0b0b0;stroke-linecap:square;stroke-width:0.8;"/>
     </g>
     <g id="line2d_28">
      <g>
       <use style="stroke:#000000;stroke-width:0.8;" x="60.32" xlink:href="#m60cacaaa30" y="143.191002"/>
      </g>
     </g>
     <g id="text_15">
      <!-- 0.008 -->
      <g transform="translate(24.691875 146.990221)scale(0.1 -0.1)">
       <defs>
        <path d="M 2034 2216 
Q 1584 2216 1326 1975 
Q 1069 1734 1069 1313 
Q 1069 891 1326 650 
Q 1584 409 2034 409 
Q 2484 409 2743 651 
Q 3003 894 3003 1313 
Q 3003 1734 2745 1975 
Q 2488 2216 2034 2216 
z
M 1403 2484 
Q 997 2584 770 2862 
Q 544 3141 544 3541 
Q 544 4100 942 4425 
Q 1341 4750 2034 4750 
Q 2731 4750 3128 4425 
Q 3525 4100 3525 3541 
Q 3525 3141 3298 2862 
Q 3072 2584 2669 2484 
Q 3125 2378 3379 2068 
Q 3634 1759 3634 1313 
Q 3634 634 3220 271 
Q 2806 -91 2034 -91 
Q 1263 -91 848 271 
Q 434 634 434 1313 
Q 434 1759 690 2068 
Q 947 2378 1403 2484 
z
M 1172 3481 
Q 1172 3119 1398 2916 
Q 1625 2713 2034 2713 
Q 2441 2713 2670 2916 
Q 2900 3119 2900 3481 
Q 2900 3844 2670 4047 
Q 2441 4250 2034 4250 
Q 1625 4250 1398 4047 
Q 1172 3844 1172 3481 
z
" id="DejaVuSans-38" transform="scale(0.015625)"/>
       </defs>
       <use xlink:href="#DejaVuSans-30"/>
       <use x="63.623047" xlink:href="#DejaVuSans-2e"/>
       <use x="95.410156" xlink:href="#DejaVuSans-30"/>
       <use x="159.033203" xlink:href="#DejaVuSans-30"/>
       <use x="222.65625" xlink:href="#DejaVuSans-38"/>
      </g>
     </g>
    </g>
    <g id="ytick_6">
     <g id="line2d_29">
      <path clip-path="url(#p01524d1052)" d="M 60.32 106.887571 
L 450 106.887571 
" style="fill:none;stroke:#b0b0b0;stroke-linecap:square;stroke-width:0.8;"/>
     </g>
     <g id="line2d_30">
      <g>
       <use style="stroke:#000000;stroke-width:0.8;" x="60.32" xlink:href="#m60cacaaa30" y="106.887571"/>
      </g>
     </g>
     <g id="text_16">
      <!-- 0.010 -->
      <g transform="translate(24.691875 110.686789)scale(0.1 -0.1)">
       <use xlink:href="#DejaVuSans-30"/>
       <use x="63.623047" xlink:href="#DejaVuSans-2e"/>
       <use x="95.410156" xlink:href="#DejaVuSans-30"/>
       <use x="159.033203" xlink:href="#DejaVuSans-31"/>
       <use x="222.65625" xlink:href="#DejaVuSans-30"/>
      </g>
     </g>
    </g>
    <g id="ytick_7">
     <g id="line2d_31">
      <path clip-path="url(#p01524d1052)" d="M 60.32 70.584139 
L 450 70.584139 
" style="fill:none;stroke:#b0b0b0;stroke-linecap:square;stroke-width:0.8;"/>
     </g>
     <g id="line2d_32">
      <g>
       <use style="stroke:#000000;stroke-width:0.8;" x="60.32" xlink:href="#m60cacaaa30" y="70.584139"/>
      </g>
     </g>
     <g id="text_17">
      <!-- 0.012 -->
      <g transform="translate(24.691875 74.383358)scale(0.1 -0.1)">
       <use xlink:href="#DejaVuSans-30"/>
       <use x="63.623047" xlink:href="#DejaVuSans-2e"/>
       <use x="95.410156" xlink:href="#DejaVuSans-30"/>
       <use x="159.033203" xlink:href="#DejaVuSans-31"/>
       <use x="222.65625" xlink:href="#DejaVuSans-32"/>
      </g>
     </g>
    </g>
    <g id="ytick_8">
     <g id="line2d_33">
      <path clip-path="url(#p01524d1052)" d="M 60.32 34.280708 
L 450 34.280708 
" style="fill:none;stroke:#b0b0b0;stroke-linecap:square;stroke-width:0.8;"/>
     </g>
     <g id="line2d_34">
      <g>
       <use style="stroke:#000000;stroke-width:0.8;" x="60.32" xlink:href="#m60cacaaa30" y="34.280708"/>
      </g>
     </g>
     <g id="text_18">
      <!-- 0.014 -->
      <g transform="translate(24.691875 38.079927)scale(0.1 -0.1)">
       <use xlink:href="#DejaVuSans-30"/>
       <use x="63.623047" xlink:href="#DejaVuSans-2e"/>
       <use x="95.410156" xlink:href="#DejaVuSans-30"/>
       <use x="159.033203" xlink:href="#DejaVuSans-31"/>
       <use x="222.65625" xlink:href="#DejaVuSans-34"/>
      </g>
     </g>
    </g>
    <g id="text_19">
     <!-- Probability -->
     <g transform="translate(18.612188 182.640906)rotate(-90)scale(0.1 -0.1)">
      <defs>
       <path d="M 1259 4147 
L 1259 2394 
L 2053 2394 
Q 2494 2394 2734 2622 
Q 2975 2850 2975 3272 
Q 2975 3691 2734 3919 
Q 2494 4147 2053 4147 
L 1259 4147 
z
M 628 4666 
L 2053 4666 
Q 2838 4666 3239 4311 
Q 3641 3956 3641 3272 
Q 3641 2581 3239 2228 
Q 2838 1875 2053 1875 
L 1259 1875 
L 1259 0 
L 628 0 
L 628 4666 
z
" id="DejaVuSans-50" transform="scale(0.015625)"/>
       <path d="M 2631 2963 
Q 2534 3019 2420 3045 
Q 2306 3072 2169 3072 
Q 1681 3072 1420 2755 
Q 1159 2438 1159 1844 
L 1159 0 
L 581 0 
L 581 3500 
L 1159 3500 
L 1159 2956 
Q 1341 3275 1631 3429 
Q 1922 3584 2338 3584 
Q 2397 3584 2469 3576 
Q 2541 3569 2628 3553 
L 2631 2963 
z
" id="DejaVuSans-72" transform="scale(0.015625)"/>
       <path d="M 1959 3097 
Q 1497 3097 1228 2736 
Q 959 2375 959 1747 
Q 959 1119 1226 758 
Q 1494 397 1959 397 
Q 2419 397 2687 759 
Q 2956 1122 2956 1747 
Q 2956 2369 2687 2733 
Q 2419 3097 1959 3097 
z
M 1959 3584 
Q 2709 3584 3137 3096 
Q 3566 2609 3566 1747 
Q 3566 888 3137 398 
Q 2709 -91 1959 -91 
Q 1206 -91 779 398 
Q 353 888 353 1747 
Q 353 2609 779 3096 
Q 1206 3584 1959 3584 
z
" id="DejaVuSans-6f" transform="scale(0.015625)"/>
       <path d="M 3116 1747 
Q 3116 2381 2855 2742 
Q 2594 3103 2138 3103 
Q 1681 3103 1420 2742 
Q 1159 2381 1159 1747 
Q 1159 1113 1420 752 
Q 1681 391 2138 391 
Q 2594 391 2855 752 
Q 3116 1113 3116 1747 
z
M 1159 2969 
Q 1341 3281 1617 3432 
Q 1894 3584 2278 3584 
Q 2916 3584 3314 3078 
Q 3713 2572 3713 1747 
Q 3713 922 3314 415 
Q 2916 -91 2278 -91 
Q 1894 -91 1617 61 
Q 1341 213 1159 525 
L 1159 0 
L 581 0 
L 581 4863 
L 1159 4863 
L 1159 2969 
z
" id="DejaVuSans-62" transform="scale(0.015625)"/>
       <path d="M 2194 1759 
Q 1497 1759 1228 1600 
Q 959 1441 959 1056 
Q 959 750 1161 570 
Q 1363 391 1709 391 
Q 2188 391 2477 730 
Q 2766 1069 2766 1631 
L 2766 1759 
L 2194 1759 
z
M 3341 1997 
L 3341 0 
L 2766 0 
L 2766 531 
Q 2569 213 2275 61 
Q 1981 -91 1556 -91 
Q 1019 -91 701 211 
Q 384 513 384 1019 
Q 384 1609 779 1909 
Q 1175 2209 1959 2209 
L 2766 2209 
L 2766 2266 
Q 2766 2663 2505 2880 
Q 2244 3097 1772 3097 
Q 1472 3097 1187 3025 
Q 903 2953 641 2809 
L 641 3341 
Q 956 3463 1253 3523 
Q 1550 3584 1831 3584 
Q 2591 3584 2966 3190 
Q 3341 2797 3341 1997 
z
" id="DejaVuSans-61" transform="scale(0.015625)"/>
       <path d="M 603 3500 
L 1178 3500 
L 1178 0 
L 603 0 
L 603 3500 
z
M 603 4863 
L 1178 4863 
L 1178 4134 
L 603 4134 
L 603 4863 
z
" id="DejaVuSans-69" transform="scale(0.015625)"/>
       <path d="M 603 4863 
L 1178 4863 
L 1178 0 
L 603 0 
L 603 4863 
z
" id="DejaVuSans-6c" transform="scale(0.015625)"/>
       <path d="M 1172 4494 
L 1172 3500 
L 2356 3500 
L 2356 3053 
L 1172 3053 
L 1172 1153 
Q 1172 725 1289 603 
Q 1406 481 1766 481 
L 2356 481 
L 2356 0 
L 1766 0 
Q 1100 0 847 248 
Q 594 497 594 1153 
L 594 3053 
L 172 3053 
L 172 3500 
L 594 3500 
L 594 4494 
L 1172 4494 
z
" id="DejaVuSans-74" transform="scale(0.015625)"/>
       <path d="M 2059 -325 
Q 1816 -950 1584 -1140 
Q 1353 -1331 966 -1331 
L 506 -1331 
L 506 -850 
L 844 -850 
Q 1081 -850 1212 -737 
Q 1344 -625 1503 -206 
L 1606 56 
L 191 3500 
L 800 3500 
L 1894 763 
L 2988 3500 
L 3597 3500 
L 2059 -325 
z
" id="DejaVuSans-79" transform="scale(0.015625)"/>
      </defs>
      <use xlink:href="#DejaVuSans-50"/>
      <use x="58.552734" xlink:href="#DejaVuSans-72"/>
      <use x="97.416016" xlink:href="#DejaVuSans-6f"/>
      <use x="158.597656" xlink:href="#DejaVuSans-62"/>
      <use x="222.074219" xlink:href="#DejaVuSans-61"/>
      <use x="283.353516" xlink:href="#DejaVuSans-62"/>
      <use x="346.830078" xlink:href="#DejaVuSans-69"/>
      <use x="374.613281" xlink:href="#DejaVuSans-6c"/>
      <use x="402.396484" xlink:href="#DejaVuSans-69"/>
      <use x="430.179688" xlink:href="#DejaVuSans-74"/>
      <use x="469.388672" xlink:href="#DejaVuSans-79"/>
     </g>
    </g>
   </g>
   <g id="line2d_35">
    <path clip-path="url(#p01524d1052)" d="M 78.032727 288.404727 
L 131.437935 288.347389 
L 133.218109 287.888685 
L 134.998282 287.774009 
L 138.55863 286.168546 
L 140.338803 285.279807 
L 142.118977 284.735096 
L 143.89915 282.871612 
L 145.679324 280.778775 
L 147.459497 277.997883 
L 149.239671 276.879792 
L 151.019845 273.898217 
L 152.800018 271.948725 
L 154.580192 268.193087 
L 156.360365 263.950076 
L 158.140539 262.115261 
L 159.920713 256.180779 
L 161.700886 253.715246 
L 163.48106 247.264722 
L 165.261233 245.028541 
L 168.821581 232.758212 
L 170.601754 232.442853 
L 172.381928 227.913152 
L 174.162101 221.347952 
L 175.942275 215.814837 
L 177.722449 211.141791 
L 179.502622 202.369079 
L 181.282796 195.603197 
L 183.062969 190.643461 
L 184.843143 185.25369 
L 186.623317 180.98201 
L 188.40349 174.502818 
L 191.963837 160.799039 
L 193.744011 156.49869 
L 195.524185 148.700724 
L 197.304358 144.572389 
L 199.084532 137.405141 
L 200.864705 132.617419 
L 202.644879 120.8918 
L 204.425053 117.967563 
L 206.205226 118.196915 
L 207.9854 111.889737 
L 209.765573 108.93683 
L 211.545747 95.949776 
L 213.325921 92.910863 
L 215.106094 91.448745 
L 216.886268 83.106068 
L 218.666441 80.75521 
L 220.446615 70.921745 
L 222.226788 68.198191 
L 225.787136 60.600908 
L 227.567309 57.160629 
L 229.347483 50.910788 
L 232.90783 47.069143 
L 234.688004 44.001561 
L 236.468177 42.998146 
L 240.028524 36.834313 
L 241.808698 34.798814 
L 243.588872 32.103929 
L 245.369045 32.189936 
L 247.149219 26.198116 
L 248.929392 26.169447 
L 250.709566 29.151022 
L 252.48974 31.616556 
L 254.269913 25.080025 
L 256.050087 26.742827 
L 257.83026 24.019273 
L 259.610434 24.822005 
L 261.390608 26.398799 
L 263.170781 26.771496 
L 264.950955 29.695733 
L 266.731128 37.723051 
L 268.511302 36.404278 
L 270.291476 40.647289 
L 272.071649 42.998146 
L 273.851823 39.357184 
L 275.631996 40.61862 
L 277.41217 47.843206 
L 279.192344 50.194063 
L 280.972517 54.26506 
L 282.752691 60.142204 
L 284.532864 55.669841 
L 286.313038 67.137438 
L 289.873385 74.104004 
L 291.653559 79.407767 
L 293.433732 80.869886 
L 295.213906 92.050793 
L 296.994079 93.426905 
L 298.774253 98.013944 
L 300.554427 103.948426 
L 302.3346 105.381875 
L 304.114774 112.061751 
L 305.894947 124.102728 
L 307.675121 126.797613 
L 309.455295 128.919119 
L 311.235468 135.512987 
L 313.015642 144.343037 
L 314.795815 148.070006 
L 316.575989 156.871387 
L 318.356163 159.164906 
L 320.136336 170.145131 
L 321.91651 175.706915 
L 323.696683 181.956756 
L 325.476857 185.82707 
L 329.037204 198.527434 
L 330.817378 203.343825 
L 332.597551 208.934278 
L 334.377725 215.298795 
L 336.157899 219.025764 
L 337.938072 224.55888 
L 339.718246 231.840804 
L 341.498419 233.417598 
L 345.058767 244.942534 
L 346.83894 247.551412 
L 348.619114 252.425141 
L 350.399287 258.560305 
L 352.179461 261.28386 
L 353.959635 264.953491 
L 355.739808 266.788306 
L 357.519982 270.486607 
L 359.300155 273.697534 
L 361.080329 275.561018 
L 362.860503 277.252489 
L 364.640676 280.119388 
L 366.42085 282.527584 
L 368.201023 283.731681 
L 369.981197 285.451821 
L 373.541544 286.999947 
L 375.321718 287.974692 
L 377.101891 287.974692 
L 378.882065 288.347389 
L 382.442412 288.404727 
L 432.287273 288.404727 
L 432.287273 288.404727 
" style="fill:none;stroke:#1f77b4;stroke-linecap:square;stroke-width:1.5;"/>
   </g>
   <g id="line2d_36">
    <path clip-path="url(#p01524d1052)" d="M 78.032727 288.404727 
L 129.657762 288.404727 
L 133.218109 288.118037 
L 136.778456 287.343975 
L 138.55863 286.684588 
L 140.338803 285.337145 
L 142.118977 284.276392 
L 143.89915 282.384239 
L 145.679324 279.918705 
L 149.239671 276.965799 
L 151.019845 272.579443 
L 152.800018 271.719373 
L 158.140539 260.538466 
L 159.920713 257.786243 
L 161.700886 252.654493 
L 163.48106 249.787594 
L 165.261233 245.372569 
L 167.041407 238.49201 
L 168.821581 236.80054 
L 170.601754 231.95548 
L 172.381928 224.501542 
L 174.162101 222.007339 
L 175.942275 212.919268 
L 177.722449 210.195714 
L 179.502622 204.06055 
L 181.282796 199.100814 
L 184.843143 183.877578 
L 186.623317 180.809996 
L 190.183664 167.3069 
L 191.963837 163.03522 
L 193.744011 153.545784 
L 195.524185 146.865908 
L 197.304358 144.056347 
L 199.084532 137.462479 
L 200.864705 130.438575 
L 202.644879 127.858366 
L 204.425053 122.61194 
L 206.205226 115.674044 
L 207.9854 106.38529 
L 209.765573 103.403715 
L 211.545747 97.125205 
L 213.325921 87.521092 
L 215.106094 87.922458 
L 216.886268 81.013231 
L 218.666441 78.977733 
L 220.446615 74.390694 
L 222.226788 71.523794 
L 225.787136 62.751082 
L 227.567309 61.718999 
L 229.347483 52.57359 
L 231.127656 47.069143 
L 232.90783 45.090983 
L 234.688004 45.148321 
L 238.248351 36.432947 
L 240.028524 34.999497 
L 241.808698 34.655469 
L 243.588872 31.129183 
L 245.369045 28.09027 
L 247.149219 30.699148 
L 248.929392 31.415873 
L 250.709566 29.237029 
L 252.48974 32.046591 
L 254.269913 25.051356 
L 256.050087 26.169447 
L 257.83026 30.555803 
L 259.610434 25.596067 
L 261.390608 28.204946 
L 263.170781 27.144193 
L 264.950955 33.824068 
L 266.731128 32.93533 
L 268.511302 36.461616 
L 270.291476 33.422702 
L 272.071649 32.07526 
L 273.851823 37.923734 
L 275.631996 45.664363 
L 277.41217 44.632279 
L 279.192344 51.627513 
L 280.972517 52.974956 
L 282.752691 55.153799 
L 286.313038 67.051431 
L 288.093212 71.810484 
L 289.873385 70.377035 
L 291.653559 77.400938 
L 293.433732 86.517678 
L 295.213906 87.234403 
L 296.994079 88.323824 
L 298.774253 102.514976 
L 300.554427 103.518391 
L 302.3346 113.925235 
L 304.114774 115.100664 
L 305.894947 122.640609 
L 307.675121 125.16348 
L 309.455295 129.865195 
L 311.235468 136.975106 
L 313.015642 141.820165 
L 314.795815 147.754647 
L 316.575989 158.161492 
L 318.356163 161.573102 
L 320.136336 169.657758 
L 321.91651 175.706915 
L 325.476857 185.139014 
L 327.257031 191.159503 
L 329.037204 199.043476 
L 330.817378 205.809358 
L 332.597551 209.536327 
L 334.377725 212.173875 
L 336.157899 221.290614 
L 337.938072 225.017583 
L 339.718246 232.041487 
L 341.498419 237.37392 
L 343.278593 240.814199 
L 345.058767 243.33707 
L 346.83894 248.612165 
L 348.619114 252.482479 
L 350.399287 256.897504 
L 352.179461 262.43062 
L 353.959635 264.924822 
L 355.739808 266.874313 
L 357.519982 270.056572 
L 359.300155 273.668865 
L 361.080329 275.905046 
L 362.860503 279.316656 
L 364.640676 281.065465 
L 366.42085 281.667514 
L 368.201023 284.563082 
L 369.981197 285.136462 
L 371.76137 286.512574 
L 373.541544 287.229299 
L 377.101891 288.146706 
L 378.882065 288.347389 
L 387.782933 288.404727 
L 432.287273 288.404727 
L 432.287273 288.404727 
" style="fill:none;stroke:#ff7f0e;stroke-linecap:square;stroke-width:1.5;"/>
   </g>
   <g id="line2d_37">
    <path clip-path="url(#p01524d1052)" d="M 78.032727 288.404727 
L 131.437935 288.31872 
L 134.998282 287.831347 
L 136.778456 286.885271 
L 138.55863 286.369229 
L 142.118977 283.961033 
L 143.89915 282.011542 
L 145.679324 281.438162 
L 147.459497 279.546008 
L 151.019845 273.267499 
L 152.800018 271.719373 
L 154.580192 267.447693 
L 156.360365 264.466118 
L 158.140539 260.509797 
L 159.920713 257.155525 
L 161.700886 253.342549 
L 163.48106 247.121377 
L 165.261233 243.33707 
L 167.041407 238.692693 
L 168.821581 237.001223 
L 170.601754 231.324762 
L 172.381928 226.623047 
L 175.942275 215.671492 
L 177.722449 210.654418 
L 179.502622 206.784104 
L 183.062969 193.080325 
L 184.843143 190.127419 
L 186.623317 179.54856 
L 188.40349 173.900769 
L 190.183664 169.055709 
L 191.963837 161.286412 
L 193.744011 154.921895 
L 195.524185 152.857728 
L 197.304358 140.730744 
L 199.084532 138.293879 
L 200.864705 132.674757 
L 202.644879 123.357334 
L 204.425053 122.411257 
L 206.205226 119.171661 
L 207.9854 108.965499 
L 209.765573 105.439213 
L 211.545747 93.57025 
L 213.325921 87.263072 
L 215.106094 90.072633 
L 216.886268 88.868535 
L 220.446615 70.463042 
L 222.226788 69.402289 
L 224.006962 60.428894 
L 225.787136 62.177703 
L 227.567309 57.332643 
L 229.347483 56.673256 
L 231.127656 47.757199 
L 232.90783 44.488934 
L 234.688004 39.930564 
L 236.468177 41.880055 
L 238.248351 36.117588 
L 240.028524 39.385853 
L 241.808698 32.734647 
L 243.588872 35.028166 
L 245.369045 33.394033 
L 247.149219 31.559218 
L 248.929392 24.850674 
L 250.709566 31.673894 
L 252.48974 29.093685 
L 254.269913 25.653405 
L 256.050087 27.860918 
L 257.83026 26.198116 
L 259.610434 24.908012 
L 261.390608 27.086855 
L 263.170781 29.667064 
L 264.950955 30.125768 
L 266.731128 34.598131 
L 268.511302 32.791985 
L 270.291476 34.540793 
L 272.071649 39.271177 
L 273.851823 40.102578 
L 275.631996 44.861631 
L 277.41217 45.320335 
L 279.192344 47.585185 
L 280.972517 51.254816 
L 282.752691 58.450733 
L 284.532864 58.766092 
L 286.313038 64.270539 
L 288.093212 68.542219 
L 289.873385 71.724477 
L 291.653559 77.372269 
L 293.433732 85.399587 
L 295.213906 88.467169 
L 296.994079 93.140215 
L 298.774253 97.325888 
L 300.554427 103.518391 
L 302.3346 107.159353 
L 304.114774 115.874727 
L 305.894947 122.124567 
L 307.675121 126.969627 
L 309.455295 133.190799 
L 311.235468 137.548485 
L 313.015642 143.999009 
L 314.795815 149.532125 
L 316.575989 155.581282 
L 318.356163 160.024976 
L 320.136336 163.981297 
L 321.91651 172.524657 
L 323.696683 178.946512 
L 325.476857 186.257105 
L 327.257031 194.714458 
L 329.037204 194.685789 
L 330.817378 203.544508 
L 332.597551 210.511073 
L 334.377725 215.184119 
L 336.157899 221.577304 
L 337.938072 227.081751 
L 339.718246 229.37527 
L 341.498419 233.990978 
L 343.278593 237.230575 
L 345.058767 244.283147 
L 346.83894 250.418311 
L 348.619114 254.489308 
L 350.399287 258.015595 
L 352.179461 261.255191 
L 353.959635 264.752808 
L 355.739808 267.103665 
L 357.519982 271.174662 
L 359.300155 274.070231 
L 361.080329 276.707778 
L 364.640676 281.094134 
L 366.42085 282.670929 
L 368.201023 285.021786 
L 369.981197 285.1938 
L 371.76137 286.541243 
L 373.541544 287.085954 
L 375.321718 287.888685 
L 378.882065 288.404727 
L 432.287273 288.404727 
L 432.287273 288.404727 
" style="fill:none;stroke:#2ca02c;stroke-linecap:square;stroke-width:1.5;"/>
   </g>
   <g id="line2d_38">
    <path clip-path="url(#p01524d1052)" d="M 78.032727 288.404727 
L 131.437935 288.347389 
L 133.218109 288.146706 
L 134.998282 287.774009 
L 136.778456 287.257968 
L 138.55863 286.139877 
L 142.118977 284.305061 
L 143.89915 282.814274 
L 145.679324 280.692768 
L 147.459497 278.886622 
L 149.239671 275.876377 
L 151.019845 274.586273 
L 152.800018 270.171248 
L 154.580192 268.250425 
L 156.360365 265.154174 
L 158.140539 259.821741 
L 159.920713 256.352793 
L 161.700886 252.425141 
L 163.48106 248.927524 
L 165.261233 244.254478 
L 168.821581 233.904971 
L 170.601754 229.346601 
L 172.381928 223.9855 
L 174.162101 217.4203 
L 175.942275 214.897429 
L 177.722449 210.224383 
L 179.502622 202.971128 
L 183.062969 192.334931 
L 184.843143 185.139014 
L 186.623317 181.727404 
L 188.40349 174.015445 
L 190.183664 169.399737 
L 193.744011 157.129408 
L 195.524185 146.464542 
L 199.084532 134.394896 
L 200.864705 130.467244 
L 202.644879 128.173725 
L 204.425053 118.598281 
L 206.205226 115.071995 
L 207.9854 113.839228 
L 209.765573 104.66515 
L 211.545747 98.98869 
L 213.325921 96.322473 
L 215.106094 85.342249 
L 216.886268 83.134737 
L 220.446615 74.448032 
L 222.226788 65.302623 
L 224.006962 63.181117 
L 225.787136 62.063027 
L 229.347483 51.856865 
L 231.127656 48.273241 
L 232.90783 45.320335 
L 234.688004 44.402927 
L 236.468177 40.675958 
L 238.248351 40.733296 
L 240.028524 36.719637 
L 241.808698 31.989253 
L 243.588872 30.469796 
L 245.369045 35.687553 
L 247.149219 26.37013 
L 248.929392 27.717573 
L 250.709566 29.49505 
L 252.48974 27.889587 
L 254.269913 30.613141 
L 256.050087 30.699148 
L 257.83026 25.79675 
L 259.610434 29.122354 
L 261.390608 29.437712 
L 263.170781 27.918256 
L 264.950955 31.243859 
L 266.731128 37.923734 
L 268.511302 35.085504 
L 270.291476 35.085504 
L 272.071649 42.224083 
L 273.851823 37.034996 
L 275.631996 46.667777 
L 277.41217 43.428181 
L 279.192344 52.143555 
L 280.972517 52.630928 
L 282.752691 54.809771 
L 284.532864 63.553814 
L 286.313038 65.015933 
L 288.093212 72.699223 
L 289.873385 74.075335 
L 291.653559 72.555878 
L 295.213906 88.954542 
L 296.994079 95.175714 
L 298.774253 94.458989 
L 300.554427 104.005764 
L 302.3346 107.962085 
L 304.114774 118.62695 
L 305.894947 119.228999 
L 307.675121 125.880205 
L 309.455295 130.925948 
L 311.235468 140.014019 
L 313.015642 144.314368 
L 314.795815 152.5137 
L 316.575989 156.527359 
L 320.136336 166.934203 
L 321.91651 175.792922 
L 323.696683 179.491222 
L 325.476857 184.565634 
L 327.257031 191.904896 
L 329.037204 195.115824 
L 330.817378 204.06055 
L 332.597551 208.676257 
L 334.377725 215.212788 
L 337.938072 225.705639 
L 339.718246 229.174587 
L 341.498419 235.65378 
L 343.278593 239.839453 
L 345.058767 243.365739 
L 346.83894 250.188959 
L 348.619114 252.826507 
L 350.399287 257.442215 
L 352.179461 260.99717 
L 353.959635 265.584209 
L 355.739808 268.651791 
L 357.519982 270.572614 
L 359.300155 273.898217 
L 361.080329 276.707778 
L 362.860503 278.542594 
L 364.640676 280.807444 
L 366.42085 282.584922 
L 368.201023 284.133047 
L 371.76137 286.369229 
L 375.321718 287.774009 
L 377.101891 288.118037 
L 378.882065 288.347389 
L 382.442412 288.404727 
L 432.287273 288.404727 
L 432.287273 288.404727 
" style="fill:none;stroke:#d62728;stroke-linecap:square;stroke-width:1.5;"/>
   </g>
   <g id="patch_3">
    <path d="M 60.32 301.624 
L 60.32 10.8 
" style="fill:none;stroke:#000000;stroke-linecap:square;stroke-linejoin:miter;stroke-width:0.8;"/>
   </g>
   <g id="patch_4">
    <path d="M 450 301.624 
L 450 10.8 
" style="fill:none;stroke:#000000;stroke-linecap:square;stroke-linejoin:miter;stroke-width:0.8;"/>
   </g>
   <g id="patch_5">
    <path d="M 60.32 301.624 
L 450 301.624 
" style="fill:none;stroke:#000000;stroke-linecap:square;stroke-linejoin:miter;stroke-width:0.8;"/>
   </g>
   <g id="patch_6">
    <path d="M 60.32 10.8 
L 450 10.8 
" style="fill:none;stroke:#000000;stroke-linecap:square;stroke-linejoin:miter;stroke-width:0.8;"/>
   </g>
   <g id="legend_1">
    <g id="patch_7">
     <path d="M 363.74375 77.5125 
L 443 77.5125 
Q 445 77.5125 445 75.5125 
L 445 17.8 
Q 445 15.8 443 15.8 
L 363.74375 15.8 
Q 361.74375 15.8 361.74375 17.8 
L 361.74375 75.5125 
Q 361.74375 77.5125 363.74375 77.5125 
z
" style="fill:#ffffff;opacity:0.8;stroke:#cccccc;stroke-linejoin:miter;"/>
    </g>
    <g id="line2d_39">
     <path d="M 365.74375 23.898438 
L 385.74375 23.898438 
" style="fill:none;stroke:#1f77b4;stroke-linecap:square;stroke-width:1.5;"/>
    </g>
    <g id="line2d_40"/>
    <g id="text_20">
     <!-- particle 0 -->
     <g transform="translate(393.74375 27.398438)scale(0.1 -0.1)">
      <defs>
       <path d="M 1159 525 
L 1159 -1331 
L 581 -1331 
L 581 3500 
L 1159 3500 
L 1159 2969 
Q 1341 3281 1617 3432 
Q 1894 3584 2278 3584 
Q 2916 3584 3314 3078 
Q 3713 2572 3713 1747 
Q 3713 922 3314 415 
Q 2916 -91 2278 -91 
Q 1894 -91 1617 61 
Q 1341 213 1159 525 
z
M 3116 1747 
Q 3116 2381 2855 2742 
Q 2594 3103 2138 3103 
Q 1681 3103 1420 2742 
Q 1159 2381 1159 1747 
Q 1159 1113 1420 752 
Q 1681 391 2138 391 
Q 2594 391 2855 752 
Q 3116 1113 3116 1747 
z
" id="DejaVuSans-70" transform="scale(0.015625)"/>
       <path d="M 3122 3366 
L 3122 2828 
Q 2878 2963 2633 3030 
Q 2388 3097 2138 3097 
Q 1578 3097 1268 2742 
Q 959 2388 959 1747 
Q 959 1106 1268 751 
Q 1578 397 2138 397 
Q 2388 397 2633 464 
Q 2878 531 3122 666 
L 3122 134 
Q 2881 22 2623 -34 
Q 2366 -91 2075 -91 
Q 1284 -91 818 406 
Q 353 903 353 1747 
Q 353 2603 823 3093 
Q 1294 3584 2113 3584 
Q 2378 3584 2631 3529 
Q 2884 3475 3122 3366 
z
" id="DejaVuSans-63" transform="scale(0.015625)"/>
       <path d="M 3597 1894 
L 3597 1613 
L 953 1613 
Q 991 1019 1311 708 
Q 1631 397 2203 397 
Q 2534 397 2845 478 
Q 3156 559 3463 722 
L 3463 178 
Q 3153 47 2828 -22 
Q 2503 -91 2169 -91 
Q 1331 -91 842 396 
Q 353 884 353 1716 
Q 353 2575 817 3079 
Q 1281 3584 2069 3584 
Q 2775 3584 3186 3129 
Q 3597 2675 3597 1894 
z
M 3022 2063 
Q 3016 2534 2758 2815 
Q 2500 3097 2075 3097 
Q 1594 3097 1305 2825 
Q 1016 2553 972 2059 
L 3022 2063 
z
" id="DejaVuSans-65" transform="scale(0.015625)"/>
       <path id="DejaVuSans-20" transform="scale(0.015625)"/>
      </defs>
      <use xlink:href="#DejaVuSans-70"/>
      <use x="63.476562" xlink:href="#DejaVuSans-61"/>
      <use x="124.755859" xlink:href="#DejaVuSans-72"/>
      <use x="165.869141" xlink:href="#DejaVuSans-74"/>
      <use x="205.078125" xlink:href="#DejaVuSans-69"/>
      <use x="232.861328" xlink:href="#DejaVuSans-63"/>
      <use x="287.841797" xlink:href="#DejaVuSans-6c"/>
      <use x="315.625" xlink:href="#DejaVuSans-65"/>
      <use x="377.148438" xlink:href="#DejaVuSans-20"/>
      <use x="408.935547" xlink:href="#DejaVuSans-30"/>
     </g>
    </g>
    <g id="line2d_41">
     <path d="M 365.74375 38.576563 
L 385.74375 38.576563 
" style="fill:none;stroke:#ff7f0e;stroke-linecap:square;stroke-width:1.5;"/>
    </g>
    <g id="line2d_42"/>
    <g id="text_21">
     <!-- particle 1 -->
     <g transform="translate(393.74375 42.076563)scale(0.1 -0.1)">
      <use xlink:href="#DejaVuSans-70"/>
      <use x="63.476562" xlink:href="#DejaVuSans-61"/>
      <use x="124.755859" xlink:href="#DejaVuSans-72"/>
      <use x="165.869141" xlink:href="#DejaVuSans-74"/>
      <use x="205.078125" xlink:href="#DejaVuSans-69"/>
      <use x="232.861328" xlink:href="#DejaVuSans-63"/>
      <use x="287.841797" xlink:href="#DejaVuSans-6c"/>
      <use x="315.625" xlink:href="#DejaVuSans-65"/>
      <use x="377.148438" xlink:href="#DejaVuSans-20"/>
      <use x="408.935547" xlink:href="#DejaVuSans-31"/>
     </g>
    </g>
    <g id="line2d_43">
     <path d="M 365.74375 53.254687 
L 385.74375 53.254687 
" style="fill:none;stroke:#2ca02c;stroke-linecap:square;stroke-width:1.5;"/>
    </g>
    <g id="line2d_44"/>
    <g id="text_22">
     <!-- particle 2 -->
     <g transform="translate(393.74375 56.754687)scale(0.1 -0.1)">
      <use xlink:href="#DejaVuSans-70"/>
      <use x="63.476562" xlink:href="#DejaVuSans-61"/>
      <use x="124.755859" xlink:href="#DejaVuSans-72"/>
      <use x="165.869141" xlink:href="#DejaVuSans-74"/>
      <use x="205.078125" xlink:href="#DejaVuSans-69"/>
      <use x="232.861328" xlink:href="#DejaVuSans-63"/>
      <use x="287.841797" xlink:href="#DejaVuSans-6c"/>
      <use x="315.625" xlink:href="#DejaVuSans-65"/>
      <use x="377.148438" xlink:href="#DejaVuSans-20"/>
      <use x="408.935547" xlink:href="#DejaVuSans-32"/>
     </g>
    </g>
    <g id="line2d_45">
     <path d="M 365.74375 67.932813 
L 385.74375 67.932813 
" style="fill:none;stroke:#d62728;stroke-linecap:square;stroke-width:1.5;"/>
    </g>
    <g id="line2d_46"/>
    <g id="text_23">
     <!-- particle 3 -->
     <g transform="translate(393.74375 71.432813)scale(0.1 -0.1)">
      <defs>
       <path d="M 2597 2516 
Q 3050 2419 3304 2112 
Q 3559 1806 3559 1356 
Q 3559 666 3084 287 
Q 2609 -91 1734 -91 
Q 1441 -91 1130 -33 
Q 819 25 488 141 
L 488 750 
Q 750 597 1062 519 
Q 1375 441 1716 441 
Q 2309 441 2620 675 
Q 2931 909 2931 1356 
Q 2931 1769 2642 2001 
Q 2353 2234 1838 2234 
L 1294 2234 
L 1294 2753 
L 1863 2753 
Q 2328 2753 2575 2939 
Q 2822 3125 2822 3475 
Q 2822 3834 2567 4026 
Q 2313 4219 1838 4219 
Q 1578 4219 1281 4162 
Q 984 4106 628 3988 
L 628 4550 
Q 988 4650 1302 4700 
Q 1616 4750 1894 4750 
Q 2613 4750 3031 4423 
Q 3450 4097 3450 3541 
Q 3450 3153 3228 2886 
Q 3006 2619 2597 2516 
z
" id="DejaVuSans-33" transform="scale(0.015625)"/>
      </defs>
      <use xlink:href="#DejaVuSans-70"/>
      <use x="63.476562" xlink:href="#DejaVuSans-61"/>
      <use x="124.755859" xlink:href="#DejaVuSans-72"/>
      <use x="165.869141" xlink:href="#DejaVuSans-74"/>
      <use x="205.078125" xlink:href="#DejaVuSans-69"/>
      <use x="232.861328" xlink:href="#DejaVuSans-63"/>
      <use x="287.841797" xlink:href="#DejaVuSans-6c"/>
      <use x="315.625" xlink:href="#DejaVuSans-65"/>
      <use x="377.148438" xlink:href="#DejaVuSans-20"/>
      <use x="408.935547" xlink:href="#DejaVuSans-33"/>
     </g>
    </g>
   </g>
  </g>
 </g>
 <defs>
  <clipPath id="p01524d1052">
   <rect height="290.824" width="389.68" x="60.32" y="10.8"/>
  </clipPath>
 </defs>
</svg>
